<svg width="11" height="12" viewBox="0 0 11 12" fill="none" xmlns="http://www.w3.org/2000/svg">
<path fill-rule="evenodd" clip-rule="evenodd" d="M5.9716 0.857597C5.71104 0.597034 5.28858 0.597034 5.02802 0.857597C4.76746 1.11816 4.76746 1.54061 5.02802 1.80118L8.55959 5.33275H0.829327C0.460836 5.33275 0.162115 5.63147 0.162115 5.99996C0.162115 6.36845 0.460836 6.66717 0.829327 6.66717H8.55941L5.02802 10.1986C4.76746 10.4591 4.76746 10.8816 5.02802 11.1421C5.28858 11.4027 5.71104 11.4027 5.9716 11.1421L10.6356 6.47818C10.6638 6.45066 10.6897 6.42067 10.7127 6.38853C10.7317 6.36218 10.7485 6.33475 10.7631 6.3065C10.8104 6.21526 10.8372 6.11171 10.8375 6.00192C10.8375 6.00126 10.8375 6.00061 10.8375 5.99996C10.8375 5.99511 10.8375 5.99027 10.8374 5.98545C10.8375 5.99094 10.8375 5.99643 10.8375 6.00192M10.8006 5.78062C10.7686 5.68838 10.7158 5.60176 10.6421 5.52808L5.9716 0.857597" fill="#131313"/>
</svg>
