<svg width="24" height="25" viewBox="0 0 24 25" fill="none" xmlns="http://www.w3.org/2000/svg">
<g clip-path="url(#clip0_664_2556)">
<path d="M17.5295 15.1064C17.5295 16.1144 17.8163 16.5164 18.5663 16.5164C20.2379 16.5164 21.3023 14.3864 21.3023 10.844C21.3023 5.42959 17.3567 2.83759 12.4307 2.83759C7.36314 2.83759 2.75394 6.23599 2.75394 12.6584C2.75394 18.7928 6.78594 22.1336 12.9779 22.1336C15.0803 22.1336 16.4915 21.9032 18.6503 21.1832L19.1135 23.1116C16.9823 23.804 14.7047 24.0044 12.9491 24.0044C4.82754 24.0044 0.477539 19.5404 0.477539 12.6572C0.477539 5.71639 5.51874 0.993195 12.4595 0.993195C19.6883 0.993195 23.5175 5.31319 23.5175 10.6124C23.5175 15.1052 22.1075 18.5324 17.6723 18.5324C15.6551 18.5324 14.3315 17.726 14.1587 15.9392C13.6403 17.9264 12.2579 18.5324 10.3847 18.5324C7.87914 18.5324 5.77674 16.6016 5.77674 12.7148C5.77674 8.79799 7.62114 6.37879 10.9331 6.37879C12.6899 6.37879 13.7843 7.06999 14.2715 8.16439L15.1079 6.63799H17.5271V15.1064H17.5295ZM13.9883 11.3048C13.9883 9.72199 12.8063 9.05839 11.8271 9.05839C10.7615 9.05839 9.58194 9.92119 9.58194 12.4568C9.58194 14.4728 10.4747 15.596 11.8271 15.596C12.7775 15.596 13.9883 14.9912 13.9883 13.3208V11.3048Z" fill="#515C6C"/>
</g>
<defs>
<clipPath id="clip0_664_2556">
<rect width="24" height="24" fill="white" transform="translate(0 0.5)"/>
</clipPath>
</defs>
</svg>
