<svg width="7" height="11" viewBox="0 0 7 11" fill="none" xmlns="http://www.w3.org/2000/svg">
<path fill-rule="evenodd" clip-rule="evenodd" d="M5.79001 0.229987C5.92784 0.373245 6.00315 0.565365 5.9994 0.764126C5.99565 0.962888 5.91314 1.15203 5.77001 1.28999L1.83201 4.99999L5.77001 8.70999C5.84435 8.77742 5.9044 8.8591 5.9466 8.95017C5.98881 9.04124 6.0123 9.13985 6.01569 9.24017C6.01908 9.34049 6.00229 9.44046 5.96634 9.53417C5.93038 9.62789 5.87598 9.71343 5.80635 9.78573C5.73673 9.85803 5.6533 9.91562 5.56102 9.95509C5.46873 9.99455 5.36945 10.0151 5.26908 10.0155C5.16871 10.0159 5.06928 9.99613 4.97668 9.9574C4.88408 9.91866 4.8002 9.86173 4.73001 9.78999L0.230008 5.53999C0.157421 5.47002 0.0996844 5.38615 0.0602489 5.29336C0.0208133 5.20058 0.000488281 5.1008 0.000488281 4.99999C0.000488281 4.89917 0.0208133 4.79939 0.0602489 4.70661C0.0996844 4.61383 0.157421 4.52995 0.230008 4.45999L4.73001 0.209987C4.87327 0.0721567 5.06539 -0.00315882 5.26415 0.000591394C5.46291 0.00434161 5.65205 0.0868507 5.79001 0.229987Z" fill="#131313"/>
</svg>
