<svg width="21" height="20" viewBox="0 0 21 20" fill="none" xmlns="http://www.w3.org/2000/svg">
<path d="M7.10052 11.5H11.5812H7.10052ZM7.10052 11.5L7.0372 11.5043C6.97933 11.5153 6.92702 11.5463 6.88968 11.5922C6.84971 11.6414 6.82988 11.7038 6.83419 11.767C6.83851 11.8302 6.86665 11.8894 6.91294 11.9327C6.95919 11.9759 7.0201 11.9999 7.08338 12L7.10052 11.5ZM11.7518 11.5673C11.7056 11.5241 11.6447 11.5001 11.5814 11.5L11.7518 11.5673ZM11.7518 11.5673C11.7981 11.6106 11.8263 11.6698 11.8306 11.733M11.7518 11.5673L11.8306 11.733M11.8306 11.733C11.8349 11.7962 11.8151 11.8586 11.7751 11.9078M11.8306 11.733L11.7751 11.9078M11.7751 11.9078C11.7377 11.9537 11.6854 11.9847 11.6276 11.9957M11.7751 11.9078L11.6276 11.9957M11.6276 11.9957L11.5642 12H7.08354L11.6276 11.9957ZM7.10052 8L13.5876 8C13.5876 8 13.5877 8 13.5878 8C13.651 8.00016 13.7119 8.02428 13.758 8.06749C13.8042 8.11076 13.8323 8.16996 13.8366 8.23313C13.8409 8.29629 13.821 8.35873 13.781 8.40783C13.7437 8.45372 13.6913 8.48477 13.6334 8.49568L13.5711 8.5H7.08354L7.10052 8ZM7.10052 8L7.0372 8.00434M7.10052 8L7.0372 8.00434M7.0372 8.00434C6.97933 8.01528 6.92702 8.04634 6.88968 8.09223C6.84971 8.14137 6.82988 8.20385 6.83419 8.26704C6.83851 8.33023 6.86665 8.38943 6.91294 8.43268C6.95919 8.47588 7.0201 8.49994 7.08338 8.5L7.0372 8.00434ZM10.3334 19.5H10.3327C8.8168 19.5021 7.32261 19.1399 5.97596 18.4438L5.80137 18.3536L5.61207 18.4064L1.78607 19.4734L1.78598 19.4734C1.6579 19.5091 1.52263 19.5102 1.39401 19.4764C1.2654 19.4427 1.14807 19.3754 1.05405 19.2813C0.960022 19.1873 0.892685 19.07 0.858936 18.9414C0.825186 18.8128 0.826237 18.6775 0.86198 18.5494L1.92994 14.7265L1.98291 14.5369L1.89241 14.3621C1.19464 13.0143 0.831409 11.5184 0.833382 10.0007V10C0.833382 4.75314 5.08653 0.5 10.3334 0.5C15.5802 0.5 19.8334 4.75314 19.8334 10C19.8334 15.2469 15.5802 19.5 10.3334 19.5ZM10.3335 1H10.3334C7.94643 1 5.65725 1.94821 3.96942 3.63604C2.28159 5.32387 1.33338 7.61305 1.33338 10C1.33338 11.5553 1.7282 13.0519 2.46946 14.3801C2.46957 14.3803 2.46969 14.3805 2.4698 14.3807L2.51959 14.4703L1.46279 18.2566L1.22433 19.1109L2.07871 18.8726L5.86799 17.8158L5.95842 17.866C5.95847 17.866 5.95851 17.8661 5.95856 17.8661C7.15964 18.5338 8.49767 18.9177 9.87008 18.9882C11.2425 19.0586 12.6129 18.8139 13.8761 18.2727C15.1393 17.7315 16.2618 16.9082 17.1575 15.8659C18.0532 14.8236 18.6984 13.5901 19.0434 12.2598C19.3885 10.9296 19.4243 9.53797 19.1482 8.19173C18.8721 6.84548 18.2914 5.58035 17.4505 4.49334C16.6097 3.40633 15.531 2.52632 14.2974 1.92078C13.0637 1.31524 11.7077 1.00026 10.3335 1Z" fill="#555555" stroke="#555555"/>
</svg>
