<svg width="20" height="20" viewBox="0 0 20 20" fill="none" xmlns="http://www.w3.org/2000/svg">
<path d="M8.35832 7.4748C8.23984 7.3644 8.08314 7.3043 7.92122 7.30716C7.7593 7.31001 7.60481 7.37561 7.4903 7.49012C7.37579 7.60463 7.3102 7.75912 7.30734 7.92103C7.30448 8.08295 7.36459 8.23966 7.47499 8.35814L9.11665 9.9998L7.47499 11.6415C7.41358 11.6987 7.36433 11.7677 7.33017 11.8444C7.29601 11.921 7.27764 12.0038 7.27616 12.0877C7.27468 12.1716 7.29012 12.255 7.32155 12.3328C7.35298 12.4106 7.39977 12.4813 7.45912 12.5407C7.51847 12.6 7.58916 12.6468 7.66699 12.6782C7.74481 12.7097 7.82817 12.7251 7.91209 12.7236C7.99601 12.7221 8.07877 12.7038 8.15543 12.6696C8.2321 12.6355 8.3011 12.5862 8.35832 12.5248L9.99999 10.8831L11.6417 12.5248C11.7601 12.6352 11.9168 12.6953 12.0788 12.6924C12.2407 12.6896 12.3952 12.624 12.5097 12.5095C12.6242 12.395 12.6898 12.2405 12.6926 12.0786C12.6955 11.9167 12.6354 11.7599 12.525 11.6415L10.8833 9.9998L12.525 8.35814C12.5864 8.30092 12.6356 8.23192 12.6698 8.15525C12.704 8.07859 12.7223 7.99582 12.7238 7.9119C12.7253 7.82799 12.7099 7.74463 12.6784 7.6668C12.647 7.58898 12.6002 7.51829 12.5409 7.45894C12.4815 7.39959 12.4108 7.3528 12.333 7.32137C12.2552 7.28993 12.1718 7.2745 12.0879 7.27598C12.004 7.27746 11.9212 7.29583 11.8445 7.32999C11.7679 7.36415 11.6989 7.4134 11.6417 7.4748L9.99999 9.11647L8.35832 7.4748Z" fill="#515C6C"/>
<path fill-rule="evenodd" clip-rule="evenodd" d="M10 1.0415C5.05252 1.0415 1.04169 5.05234 1.04169 9.99984C1.04169 14.9473 5.05252 18.9582 10 18.9582C14.9475 18.9582 18.9584 14.9473 18.9584 9.99984C18.9584 5.05234 14.9475 1.0415 10 1.0415ZM2.29169 9.99984C2.29169 7.95546 3.10381 5.99481 4.54941 4.54922C5.995 3.10363 7.95564 2.2915 10 2.2915C12.0444 2.2915 14.005 3.10363 15.4506 4.54922C16.8962 5.99481 17.7084 7.95546 17.7084 9.99984C17.7084 12.0442 16.8962 14.0049 15.4506 15.4504C14.005 16.896 12.0444 17.7082 10 17.7082C7.95564 17.7082 5.995 16.896 4.54941 15.4504C3.10381 14.0049 2.29169 12.0442 2.29169 9.99984Z" fill="#515C6C"/>
</svg>
