<svg width="20" height="20" viewBox="0 0 20 20" fill="none" xmlns="http://www.w3.org/2000/svg">
<path d="M9.99999 5.2085C10.1658 5.2085 10.3247 5.27434 10.4419 5.39155C10.5591 5.50876 10.625 5.66774 10.625 5.8335V10.8335C10.625 10.9993 10.5591 11.1582 10.4419 11.2754C10.3247 11.3926 10.1658 11.4585 9.99999 11.4585C9.83423 11.4585 9.67526 11.3926 9.55805 11.2754C9.44084 11.1582 9.37499 10.9993 9.37499 10.8335V5.8335C9.37499 5.66774 9.44084 5.50876 9.55805 5.39155C9.67526 5.27434 9.83423 5.2085 9.99999 5.2085ZM9.99999 14.1668C10.221 14.1668 10.433 14.079 10.5892 13.9228C10.7455 13.7665 10.8333 13.5545 10.8333 13.3335C10.8333 13.1125 10.7455 12.9005 10.5892 12.7442C10.433 12.588 10.221 12.5002 9.99999 12.5002C9.77898 12.5002 9.56701 12.588 9.41073 12.7442C9.25445 12.9005 9.16666 13.1125 9.16666 13.3335C9.16666 13.5545 9.25445 13.7665 9.41073 13.9228C9.56701 14.079 9.77898 14.1668 9.99999 14.1668Z" fill="#0853C2"/>
<path fill-rule="evenodd" clip-rule="evenodd" d="M1.04166 9.99984C1.04166 5.05234 5.05249 1.0415 9.99999 1.0415C14.9475 1.0415 18.9583 5.05234 18.9583 9.99984C18.9583 14.9473 14.9475 18.9582 9.99999 18.9582C5.05249 18.9582 1.04166 14.9473 1.04166 9.99984ZM9.99999 2.2915C7.95561 2.2915 5.99497 3.10363 4.54937 4.54922C3.10378 5.99481 2.29166 7.95546 2.29166 9.99984C2.29166 12.0442 3.10378 14.0049 4.54937 15.4504C5.99497 16.896 7.95561 17.7082 9.99999 17.7082C12.0444 17.7082 14.005 16.896 15.4506 15.4504C16.8962 14.0049 17.7083 12.0442 17.7083 9.99984C17.7083 7.95546 16.8962 5.99481 15.4506 4.54922C14.005 3.10363 12.0444 2.2915 9.99999 2.2915Z" fill="#0853C2"/>
</svg>
