<svg width="100" height="100" viewBox="0 0 100 100" fill="none" xmlns="http://www.w3.org/2000/svg">
<path d="M66.7912 41.7917C67.0982 41.5056 67.3445 41.1606 67.5153 40.7772C67.6861 40.3939 67.7779 39.9801 67.7853 39.5605C67.7927 39.1409 67.7155 38.7241 67.5584 38.335C67.4012 37.9459 67.1673 37.5924 66.8705 37.2957C66.5738 36.9989 66.2203 36.765 65.8312 36.6078C65.4421 36.4507 65.0253 36.3735 64.6057 36.3809C64.1861 36.3883 63.7723 36.4801 63.389 36.6509C63.0056 36.8217 62.6606 37.068 62.3745 37.375L43.7495 56L37.6245 49.875C37.0321 49.323 36.2486 49.0225 35.439 49.0368C34.6294 49.0511 33.857 49.379 33.2844 49.9516C32.7119 50.5241 32.3839 51.2966 32.3696 52.1062C32.3553 52.9158 32.6559 53.6993 33.2079 54.2917L41.5412 62.625C42.1271 63.2102 42.9214 63.5389 43.7495 63.5389C44.5777 63.5389 45.3719 63.2102 45.9579 62.625L66.7912 41.7917Z" fill="#3E863E"/>
<path fill-rule="evenodd" clip-rule="evenodd" d="M49.9997 5.20833C25.2622 5.20833 5.20801 25.2625 5.20801 50C5.20801 74.7375 25.2622 94.7917 49.9997 94.7917C74.7372 94.7917 94.7914 74.7375 94.7914 50C94.7914 25.2625 74.7372 5.20833 49.9997 5.20833ZM11.458 50C11.458 39.7781 15.5186 29.9749 22.7466 22.7469C29.9746 15.519 39.7778 11.4583 49.9997 11.4583C60.2216 11.4583 70.0248 15.519 77.2528 22.7469C84.4807 29.9749 88.5413 39.7781 88.5414 50C88.5414 60.2219 84.4807 70.0251 77.2528 77.2531C70.0248 84.481 60.2216 88.5417 49.9997 88.5417C39.7778 88.5417 29.9746 84.481 22.7466 77.2531C15.5186 70.0251 11.458 60.2219 11.458 50Z" fill="#3E863E"/>
</svg>
