<svg width="10" height="6" viewBox="0 0 10 6" fill="none" xmlns="http://www.w3.org/2000/svg">
<path d="M8.91416 0.205752C8.85993 0.151077 8.79541 0.10768 8.72433 0.0780654C8.65324 0.0484503 8.577 0.0332031 8.49999 0.0332031C8.42298 0.0332031 8.34674 0.0484503 8.27565 0.0780654C8.20457 0.10768 8.14005 0.151077 8.08582 0.205752L3.73999 4.55742L1.91416 2.72575C1.85785 2.67136 1.79139 2.6286 1.71856 2.59989C1.64572 2.57119 1.56795 2.55712 1.48968 2.55847C1.41141 2.55982 1.33417 2.57658 1.26237 2.60779C1.19058 2.63899 1.12563 2.68403 1.07124 2.74034C1.01685 2.79664 0.974085 2.86311 0.945383 2.93594C0.916681 3.00877 0.902605 3.08654 0.903959 3.16481C0.905313 3.24309 0.922071 3.32033 0.953275 3.39212C0.98448 3.46392 1.02952 3.52886 1.08582 3.58325L3.32582 5.82325C3.38005 5.87793 3.44457 5.92132 3.51565 5.95094C3.58674 5.98055 3.66298 5.9958 3.73999 5.9958C3.817 5.9958 3.89324 5.98055 3.96433 5.95094C4.03541 5.92132 4.09993 5.87793 4.15416 5.82325L8.91416 1.06325C8.97337 1.00863 9.02062 0.942331 9.05294 0.868539C9.08527 0.794748 9.10195 0.715062 9.10195 0.634502C9.10195 0.553943 9.08527 0.474257 9.05294 0.400465C9.02062 0.326674 8.97337 0.260377 8.91416 0.205752Z" fill="#F9F9F9"/>
</svg>
