<svg width="86" height="70" viewBox="0 0 86 70" fill="none" xmlns="http://www.w3.org/2000/svg">
<path fill-rule="evenodd" clip-rule="evenodd" d="M44.2472 18.5938C45.0868 19.8311 45.7386 21.2563 46.2027 22.8693H60.786C60.322 19.5107 59.2724 16.4394 57.6373 13.6553C56.0022 10.8491 53.892 8.42961 51.3068 6.39678C48.7437 4.36395 45.8049 2.79514 42.4905 1.69034C39.1761 0.563447 35.5966 0 31.7519 0C27.2664 0 23.1013 0.784406 19.2566 2.35322C15.4119 3.92203 12.0423 6.20896 9.14773 9.21402C6.25316 12.2191 3.99937 15.887 2.38636 20.2178C0.795454 24.5265 0 29.4318 0 34.9337C0 42.0928 1.33681 48.2797 4.01042 53.4943C6.70612 58.6869 10.4624 62.6973 15.2794 65.5256C20.0963 68.3318 25.6866 69.7348 32.0502 69.7348C37.7509 69.7348 42.8109 68.5859 47.2301 66.2879C48.6865 65.5233 50.0397 64.6531 51.2897 63.6773L51.3559 70H61.0116L61.415 52.7652C61.415 45.2052 66.2683 39.2319 71.495 39.2319C74.575 39.2319 75.7883 41.2852 75.7883 43.8052C75.7883 46.4186 74.3883 49.4052 72.895 50.8986H83.6283C84.4683 49.4986 85.6817 46.2319 85.6817 41.8452C85.6817 35.1252 81.4817 31.3919 75.7883 31.3919C67.6683 31.3919 63.095 37.9252 61.415 45.2052V41.2723C61.4155 41.1924 61.4157 41.1124 61.4157 41.0322V32.4811H61.415V32.3252H50.9617L51.086 44.2048C50.5028 45.764 49.0749 47.3926 47.8111 48.8342L47.8111 48.8342C47.0014 49.7578 46.259 50.6045 45.8492 51.307C44.7796 53.174 43.1963 53.9539 41.2503 54.9125C40.9853 55.0431 40.7136 55.1769 40.4356 55.3172C38.1376 56.4662 35.3646 57.0407 32.1165 57.0407C28.5369 57.0407 25.4324 56.179 22.803 54.4555C20.1736 52.7099 18.1408 50.1799 16.7045 46.8655C15.2683 43.5511 14.5502 39.5297 14.5502 34.8011C14.5502 30.0726 15.2794 26.0732 16.7377 22.803C18.196 19.5107 20.2289 17.0028 22.8362 15.2794C25.4656 13.5559 28.5148 12.6941 31.9839 12.6941C33.84 12.6941 35.5303 12.9261 37.0549 13.3902C38.6016 13.8542 39.9716 14.5281 41.1648 15.4119C42.3801 16.2737 43.4075 17.3343 44.2472 18.5938ZM41.5672 46.6667C45.8628 46.6667 49.345 43.1844 49.345 38.8889C49.345 34.5933 45.8628 31.1111 41.5672 31.1111C37.2717 31.1111 33.7894 34.5933 33.7894 38.8889C33.7894 43.1844 37.2717 46.6667 41.5672 46.6667ZM85.5555 62.2222C85.5555 66.5178 82.0733 70 77.7777 70C73.4822 70 70 66.5178 70 62.2222C70 57.9267 73.4822 54.4444 77.7777 54.4444C82.0733 54.4444 85.5555 57.9267 85.5555 62.2222Z" fill="#001B33"/>
</svg>
