<svg width="41" height="41" viewBox="0 0 41 41" fill="none" xmlns="http://www.w3.org/2000/svg">
<rect x="0.25" y="0.587036" width="40" height="40" rx="20" fill="#131313"/>
<path d="M27.5182 13.915C26.1882 13.295 24.7482 12.845 23.2482 12.585C23.235 12.5846 23.2219 12.5871 23.2098 12.5922C23.1977 12.5974 23.1869 12.6052 23.1782 12.615C22.9982 12.945 22.7882 13.375 22.6482 13.705C21.0572 13.465 19.4392 13.465 17.8482 13.705C17.7082 13.365 17.4982 12.945 17.3082 12.615C17.2982 12.595 17.2682 12.585 17.2382 12.585C15.7382 12.845 14.3082 13.295 12.9682 13.915C12.9582 13.915 12.9482 13.925 12.9382 13.935C10.2182 18.005 9.46816 21.965 9.83816 25.885C9.83816 25.905 9.84816 25.925 9.86816 25.935C11.6682 27.255 13.3982 28.055 15.1082 28.585C15.1382 28.595 15.1682 28.585 15.1782 28.565C15.5782 28.015 15.9382 27.435 16.2482 26.825C16.2682 26.785 16.2482 26.745 16.2082 26.735C15.6382 26.515 15.0982 26.255 14.5682 25.955C14.5282 25.935 14.5282 25.875 14.5582 25.845C14.6682 25.765 14.7782 25.675 14.8882 25.595C14.9082 25.575 14.9382 25.575 14.9582 25.585C18.3982 27.155 22.1082 27.155 25.5082 25.585C25.5282 25.575 25.5582 25.575 25.5782 25.595C25.6882 25.685 25.7982 25.765 25.9082 25.855C25.9482 25.885 25.9482 25.945 25.8982 25.965C25.3782 26.275 24.8282 26.525 24.2582 26.745C24.2182 26.755 24.2082 26.805 24.2182 26.835C24.5382 27.445 24.8982 28.025 25.2882 28.575C25.3182 28.585 25.3482 28.595 25.3782 28.585C27.0982 28.055 28.8282 27.255 30.6282 25.935C30.6482 25.925 30.6582 25.905 30.6582 25.885C31.0982 21.355 29.9282 17.425 27.5582 13.935C27.5482 13.925 27.5382 13.915 27.5182 13.915ZM16.7682 23.495C15.7382 23.495 14.8782 22.545 14.8782 21.375C14.8782 20.205 15.7182 19.255 16.7682 19.255C17.8282 19.255 18.6682 20.215 18.6582 21.375C18.6582 22.545 17.8182 23.495 16.7682 23.495ZM23.7382 23.495C22.7082 23.495 21.8482 22.545 21.8482 21.375C21.8482 20.205 22.6882 19.255 23.7382 19.255C24.7982 19.255 25.6382 20.215 25.6282 21.375C25.6282 22.545 24.7982 23.495 23.7382 23.495Z" fill="white"/>
</svg>
