<svg width="22" height="12" viewBox="0 0 22 12" fill="none" xmlns="http://www.w3.org/2000/svg">
<path fill-rule="evenodd" clip-rule="evenodd" d="M0.606229 0.0800003C0.726977 0.0283033 0.856726 0.000900651 0.988066 -0.000642427C1.11941 -0.0021855 1.24976 0.0221613 1.37169 0.0710071C1.49362 0.119853 1.60473 0.192241 1.69868 0.284037C1.79263 0.375832 1.86757 0.485236 1.91923 0.606L1.00023 1L1.92023 0.606L1.92323 0.614L1.94423 0.659C1.96423 0.701 1.99523 0.767 2.03823 0.853001C2.12423 1.025 2.25723 1.277 2.43823 1.582C2.91531 2.3839 3.47503 3.13365 4.10823 3.819C4.29794 4.02314 4.49473 4.2206 4.69823 4.411C6.18023 5.8 8.25123 7 11.0002 7C12.102 7.00489 13.1947 6.80061 14.2202 6.398C15.4472 5.915 16.4742 5.188 17.3162 4.4C18.4415 3.33072 19.367 2.06929 20.0492 0.675001L20.0762 0.617L20.0812 0.606C20.1882 0.366009 20.3853 0.177758 20.63 0.0819486C20.8746 -0.0138612 21.1472 -0.00953137 21.3887 0.0940021C21.6301 0.197536 21.8212 0.391954 21.9205 0.635221C22.0198 0.878489 22.0193 1.15106 21.9192 1.394L21.9172 1.399L21.9132 1.407L21.9022 1.433L21.8622 1.52C21.64 1.98253 21.3927 2.43254 21.1212 2.868C20.6215 3.67105 20.0488 4.42625 19.4102 5.124L20.2072 5.921C20.3949 6.10851 20.5003 6.36288 20.5004 6.62815C20.5005 6.89342 20.3952 7.14786 20.2077 7.3355C20.0202 7.52314 19.7659 7.62861 19.5006 7.6287C19.2353 7.6288 18.9809 7.52351 18.7932 7.336L17.9532 6.496C17.3628 6.97474 16.7275 7.39536 16.0562 7.752L16.8382 8.954C16.912 9.06402 16.9632 9.18761 16.9888 9.31758C17.0144 9.44755 17.0139 9.58131 16.9874 9.7111C16.9609 9.84089 16.9089 9.96411 16.8343 10.0736C16.7598 10.1831 16.6642 10.2767 16.5532 10.349C16.4422 10.4213 16.3179 10.4708 16.1876 10.4946C16.0573 10.5184 15.9236 10.5161 15.7942 10.4879C15.6647 10.4596 15.5422 10.4059 15.4338 10.3298C15.3253 10.2538 15.233 10.157 15.1622 10.045L14.1762 8.531C13.4972 8.739 12.7722 8.886 12.0002 8.955V10.5C12.0002 10.7652 11.8949 11.0196 11.7073 11.2071C11.5198 11.3946 11.2654 11.5 11.0002 11.5C10.735 11.5 10.4807 11.3946 10.2931 11.2071C10.1056 11.0196 10.0002 10.7652 10.0002 10.5V8.956C9.22523 8.886 8.50023 8.739 7.82323 8.531L6.83823 10.045C6.69033 10.2595 6.46457 10.4078 6.20898 10.4583C5.9534 10.5089 5.68818 10.4577 5.46977 10.3156C5.25136 10.1736 5.09701 9.95192 5.03958 9.6978C4.98214 9.44368 5.02614 9.17717 5.16223 8.955L5.94423 7.752C5.24423 7.382 4.61223 6.952 4.04723 6.495L3.20723 7.335C3.01863 7.51716 2.76602 7.61795 2.50383 7.61567C2.24163 7.6134 1.99082 7.50823 1.80541 7.32282C1.62 7.13741 1.51483 6.8866 1.51256 6.6244C1.51028 6.3622 1.61107 6.1096 1.79323 5.921L2.59023 5.124C1.8828 4.35015 1.25622 3.50611 0.720229 2.605C0.506122 2.24539 0.308908 1.87599 0.129229 1.498C0.118054 1.47408 0.107054 1.45008 0.0962292 1.426L0.0862292 1.405L0.0842292 1.398L0.0832291 1.396C0.0802291 1.396 0.0802292 1.394 1.00023 1L0.0812292 1.395C0.0293475 1.27426 0.00177323 1.14448 8.27469e-05 1.01307C-0.00160774 0.881668 0.0226187 0.751219 0.0713771 0.629184C0.120135 0.507149 0.19247 0.395921 0.284243 0.301859C0.376017 0.207798 0.485431 0.131748 0.606229 0.0800003Z" fill="#131313"/>
</svg>
