<svg width="159" height="53" viewBox="0 0 159 53" fill="none" xmlns="http://www.w3.org/2000/svg">
<path d="M14.9279 33.3744C6.87901 33.3744 2.05902 27.2441 2.05902 17.2765C2.05902 8.05774 7.44056 1.17873 17.1741 1.17873C23.7724 1.17873 28.6391 4.36085 30.7918 10.0232L26.2058 13.2989C25.2698 9.27443 22.2749 6.1859 17.2209 6.1859C10.6695 6.1859 7.67454 10.7719 7.67454 17.2765C7.67454 23.9216 10.7163 28.414 16.8934 28.414C22.1813 28.414 24.5211 25.5594 25.6442 21.2074H16.6126V16.7618H30.9321V33H27.5628L26.1122 21.2074C25.8782 28.2736 21.9005 33.3744 14.9279 33.3744ZM42.2429 33.468C38.4992 33.468 36.253 31.3621 36.253 28.0864C36.253 24.8575 38.4992 22.8921 42.1961 21.4414L49.8238 18.2125C49.6367 15.9195 48.6071 14.3752 45.4718 14.3752C42.4301 14.3752 40.0435 16.1534 38.7332 18.54L35.5979 14.7964C37.3761 12.363 40.9326 9.74239 45.9866 9.74239C51.6489 9.74239 54.831 12.9713 54.831 18.5868V27.1505C54.831 28.18 55.2054 28.5076 56.0477 28.5076H57.4984V33H54.2695C51.8361 33 49.9174 31.8769 49.9174 28.6012V26.9165C49.2155 29.9115 47.0161 33.468 42.2429 33.468ZM41.307 27.2909C41.307 28.6012 42.1961 29.3967 44.1147 29.3967C47.5776 29.3967 49.9174 27.3377 49.9174 24.2492V21.8158L44.0679 24.4363C42.1025 25.3255 41.307 26.121 41.307 27.2909ZM67.6834 33H62.4423V10.2104H67.6834V16.4342C68.5258 12.8309 70.772 9.74239 75.0772 9.74239C79.2421 9.74239 81.4883 12.1758 81.7222 16.481C82.5178 12.8777 84.764 9.74239 89.116 9.74239C93.468 9.74239 95.761 12.4098 95.761 17.1362V33H90.5199V18.7272C90.5199 15.5919 89.2096 14.0008 86.1211 14.0008C83.0325 14.0008 81.7222 16.481 81.7222 20.2247V33H76.4811V18.7272C76.4811 15.5919 75.1708 14.0008 72.0823 14.0008C68.9937 14.0008 67.6834 16.481 67.6834 20.2247V33ZM107.327 33H102.085V1.64669H107.327V16.3406C108.075 12.7841 110.088 9.74239 114.627 9.74239C120.195 9.74239 123.752 14.2816 123.752 21.6286C123.752 28.9755 120.195 33.5148 114.533 33.5148C109.994 33.5148 108.075 30.473 107.327 26.9633V33ZM107.327 23.0793C107.327 26.8229 108.871 29.2563 112.568 29.2563C115.89 29.2563 118.37 26.7761 118.37 21.6286C118.37 16.5278 115.89 14.0008 112.568 14.0008C108.871 14.0008 107.327 16.481 107.327 20.2247V23.0793ZM134.22 33H128.979V1.64669H134.22V33ZM145.941 33H140.699V10.2104H145.941V16.6682C146.783 13.0181 149.076 9.74239 153.147 9.74239C156.002 9.74239 158.108 11.6142 158.108 14.9835C158.108 17.183 157.499 18.8208 157.078 19.5228H151.696C152.445 18.774 153.147 17.2765 153.147 15.9663C153.147 14.7028 152.539 13.6733 150.995 13.6733C148.374 13.6733 145.941 16.6682 145.941 20.4587V33Z" fill="white"/>
<line x1="0.356873" y1="45.4151" x2="41.3034" y2="45.4151" stroke="white" stroke-width="1.1699"/>
<path d="M44.5845 50V42.2263H47.2112C47.8211 42.2263 48.3196 42.3363 48.7068 42.5565C49.0965 42.7741 49.385 43.0689 49.5722 43.4409C49.7595 43.8129 49.8531 44.2279 49.8531 44.6859C49.8531 45.144 49.7595 45.5602 49.5722 45.9347C49.3875 46.3093 49.1015 46.6079 48.7144 46.8305C48.3272 47.0507 47.8312 47.1608 47.2264 47.1608H45.3437V46.3257H47.196C47.6136 46.3257 47.9489 46.2536 48.2019 46.1093C48.455 45.9651 48.6384 45.7703 48.7523 45.5248C48.8687 45.2768 48.9269 44.9972 48.9269 44.6859C48.9269 44.3747 48.8687 44.0963 48.7523 43.8509C48.6384 43.6054 48.4537 43.4131 48.1981 43.2739C47.9426 43.1322 47.6035 43.0613 47.1809 43.0613H45.5259V50H44.5845ZM52.3576 42.2263V50H51.4618V42.2263H52.3576ZM55.9278 50.1367C55.5584 50.1367 55.2231 50.0671 54.922 49.9279C54.6208 49.7862 54.3817 49.5825 54.2046 49.3168C54.0274 49.0486 53.9388 48.7246 53.9388 48.3451C53.9388 48.011 54.0046 47.7403 54.1362 47.5328C54.2678 47.3227 54.4437 47.1583 54.6638 47.0393C54.884 46.9204 55.1269 46.8318 55.3926 46.7736C55.6609 46.7129 55.9304 46.6648 56.2011 46.6294C56.5554 46.5838 56.8426 46.5497 57.0628 46.5269C57.2855 46.5016 57.4474 46.4598 57.5486 46.4016C57.6524 46.3434 57.7043 46.2422 57.7043 46.098V46.0676C57.7043 45.6931 57.6018 45.4021 57.3968 45.1946C57.1944 44.9871 56.8869 44.8833 56.4744 44.8833C56.0468 44.8833 55.7115 44.9769 55.4685 45.1642C55.2256 45.3515 55.0548 45.5514 54.9561 45.7639L54.1059 45.4603C54.2577 45.106 54.4601 44.8302 54.7132 44.6328C54.9688 44.4329 55.2471 44.2937 55.5483 44.2152C55.8519 44.1343 56.1505 44.0938 56.4441 44.0938C56.6313 44.0938 56.8464 44.1166 57.0894 44.1621C57.3348 44.2051 57.5714 44.295 57.7992 44.4316C58.0294 44.5683 58.2205 44.7745 58.3723 45.0503C58.5242 45.3262 58.6001 45.6956 58.6001 46.1587V50H57.7043V49.2105H57.6587C57.598 49.337 57.4968 49.4724 57.3551 49.6167C57.2133 49.7609 57.0248 49.8836 56.7895 49.9848C56.5541 50.0861 56.2669 50.1367 55.9278 50.1367ZM56.0645 49.332C56.4188 49.332 56.7174 49.2624 56.9603 49.1232C57.2058 48.984 57.3905 48.8044 57.5145 48.5842C57.641 48.364 57.7043 48.1325 57.7043 47.8896V47.0697C57.6663 47.1152 57.5828 47.157 57.4537 47.1949C57.3272 47.2304 57.1804 47.262 57.0134 47.2898C56.849 47.3151 56.6883 47.3379 56.5314 47.3582C56.377 47.3759 56.2517 47.3911 56.1556 47.4037C55.9228 47.4341 55.7052 47.4834 55.5027 47.5517C55.3028 47.6175 55.1408 47.7175 55.0169 47.8516C54.8954 47.9832 54.8347 48.1629 54.8347 48.3906C54.8347 48.7019 54.9498 48.9372 55.1801 49.0966C55.4129 49.2535 55.7077 49.332 56.0645 49.332ZM60.8171 52.1864C60.6652 52.1864 60.5299 52.1738 60.4109 52.1484C60.292 52.1257 60.2098 52.1029 60.1642 52.0801L60.392 51.2906C60.6096 51.3463 60.8019 51.3665 60.9689 51.3513C61.1359 51.3361 61.284 51.2615 61.413 51.1274C61.5446 50.9958 61.6648 50.782 61.7736 50.4859L61.9406 50.0304L59.7846 44.1697H60.7563L62.3658 48.8157H62.4265L64.0359 44.1697H65.0076L62.5328 50.8503C62.4214 51.1514 62.2835 51.4007 62.119 51.5981C61.9546 51.798 61.7635 51.946 61.5459 52.0422C61.3308 52.1383 61.0878 52.1864 60.8171 52.1864ZM66.6913 50.0608C66.5041 50.0608 66.3434 49.9937 66.2093 49.8596C66.0751 49.7255 66.0081 49.5648 66.0081 49.3775C66.0081 49.1903 66.0751 49.0296 66.2093 48.8955C66.3434 48.7613 66.5041 48.6943 66.6913 48.6943C66.8786 48.6943 67.0393 48.7613 67.1734 48.8955C67.3075 49.0296 67.3746 49.1903 67.3746 49.3775C67.3746 49.5015 67.3429 49.6154 67.2797 49.7191C67.2189 49.8229 67.1367 49.9064 67.0329 49.9697C66.9317 50.0304 66.8179 50.0608 66.6913 50.0608ZM72.5374 50V42.2263H75.2552C75.7967 42.2263 76.2433 42.3199 76.5951 42.5071C76.9468 42.6919 77.2087 42.9411 77.3808 43.2549C77.5529 43.5662 77.6389 43.9116 77.6389 44.2912C77.6389 44.6252 77.5794 44.901 77.4605 45.1186C77.3441 45.3363 77.1897 45.5083 76.9974 45.6349C76.8076 45.7614 76.6014 45.855 76.3787 45.9158V45.9917C76.6166 46.0069 76.8557 46.0904 77.0961 46.2422C77.3365 46.394 77.5377 46.6117 77.6996 46.8951C77.8616 47.1785 77.9426 47.5252 77.9426 47.9351C77.9426 48.3248 77.854 48.6753 77.6769 48.9866C77.4997 49.2978 77.2201 49.5445 76.838 49.7267C76.4559 49.9089 75.9586 50 75.3463 50H72.5374ZM73.4787 49.165H75.3463C75.9612 49.165 76.3977 49.046 76.6558 48.8082C76.9164 48.5678 77.0468 48.2767 77.0468 47.9351C77.0468 47.6719 76.9797 47.429 76.8456 47.2063C76.7115 46.9811 76.5204 46.8014 76.2724 46.6673C76.0244 46.5307 75.7309 46.4624 75.3918 46.4624H73.4787V49.165ZM73.4787 45.6425H75.2248C75.5082 45.6425 75.7638 45.5868 75.9915 45.4755C76.2218 45.3641 76.404 45.2072 76.5381 45.0048C76.6748 44.8023 76.7431 44.5645 76.7431 44.2912C76.7431 43.9495 76.6242 43.6598 76.3863 43.4219C76.1484 43.1815 75.7714 43.0613 75.2552 43.0613H73.4787V45.6425ZM82.0262 50.1215C81.4644 50.1215 80.9798 49.9975 80.5724 49.7495C80.1675 49.499 79.855 49.1498 79.6348 48.7019C79.4172 48.2514 79.3084 47.7276 79.3084 47.1304C79.3084 46.5332 79.4172 46.0069 79.6348 45.5514C79.855 45.0933 80.1612 44.7365 80.5534 44.481C80.9482 44.2228 81.4087 44.0938 81.9351 44.0938C82.2387 44.0938 82.5386 44.1444 82.8347 44.2456C83.1307 44.3468 83.4002 44.5113 83.6432 44.7391C83.8861 44.9643 84.0797 45.2629 84.2239 45.6349C84.3682 46.0069 84.4403 46.4649 84.4403 47.0089V47.3885H79.9461V46.6142H83.5293C83.5293 46.2852 83.4635 45.9917 83.3319 45.7336C83.2029 45.4755 83.0181 45.2717 82.7777 45.1224C82.5399 44.9731 82.259 44.8985 81.9351 44.8985C81.5783 44.8985 81.2695 44.9871 81.0089 45.1642C80.7508 45.3388 80.5521 45.5665 80.413 45.8474C80.2738 46.1283 80.2042 46.4295 80.2042 46.7508V47.2671C80.2042 47.7074 80.2801 48.0806 80.4319 48.3868C80.5863 48.6905 80.8001 48.922 81.0734 49.0814C81.3467 49.2383 81.6643 49.3168 82.0262 49.3168C82.2615 49.3168 82.4741 49.2839 82.6639 49.2181C82.8562 49.1498 83.0219 49.0486 83.1611 48.9144C83.3003 48.7778 83.4078 48.6082 83.4837 48.4058L84.3492 48.6487C84.2581 48.9423 84.105 49.2004 83.8899 49.4231C83.6748 49.6432 83.4091 49.8153 83.0928 49.9393C82.7765 50.0608 82.4209 50.1215 82.0262 50.1215ZM88.5523 44.1697V44.9289H85.5309V44.1697H88.5523ZM86.4115 42.7728H87.3073V48.3299C87.3073 48.5829 87.344 48.7727 87.4174 48.8993C87.4933 49.0232 87.5895 49.1068 87.7059 49.1498C87.8248 49.1903 87.9501 49.2105 88.0817 49.2105C88.1803 49.2105 88.2613 49.2054 88.3246 49.1953C88.3879 49.1827 88.4385 49.1725 88.4764 49.165L88.6586 49.9697C88.5979 49.9924 88.5131 50.0152 88.4043 50.038C88.2955 50.0633 88.1576 50.0759 87.9906 50.0759C87.7375 50.0759 87.4895 50.0215 87.2466 49.9127C87.0062 49.8039 86.8063 49.6382 86.6468 49.4155C86.49 49.1928 86.4115 48.9119 86.4115 48.5728V42.7728ZM90.7665 50.0608C90.5792 50.0608 90.4185 49.9937 90.2844 49.8596C90.1503 49.7255 90.0833 49.5648 90.0833 49.3775C90.0833 49.1903 90.1503 49.0296 90.2844 48.8955C90.4185 48.7613 90.5792 48.6943 90.7665 48.6943C90.9538 48.6943 91.1144 48.7613 91.2486 48.8955C91.3827 49.0296 91.4497 49.1903 91.4497 49.3775C91.4497 49.5015 91.4181 49.6154 91.3548 49.7191C91.2941 49.8229 91.2119 49.9064 91.1081 49.9697C91.0069 50.0304 90.893 50.0608 90.7665 50.0608ZM98.0246 50L95.8989 42.2263H96.8555L98.4801 48.5576H98.556L100.211 42.2263H101.274L102.929 48.5576H103.005L104.629 42.2263H105.586L103.46 50H102.488L100.773 43.8053H100.712L98.9963 50H98.0246ZM106.851 50V44.1697H107.747V50H106.851ZM107.306 43.198C107.132 43.198 106.981 43.1385 106.855 43.0196C106.731 42.9006 106.669 42.7577 106.669 42.5907C106.669 42.4236 106.731 42.2807 106.855 42.1617C106.981 42.0428 107.132 41.9833 107.306 41.9833C107.481 41.9833 107.63 42.0428 107.754 42.1617C107.881 42.2807 107.944 42.4236 107.944 42.5907C107.944 42.7577 107.881 42.9006 107.754 43.0196C107.63 43.1385 107.481 43.198 107.306 43.198ZM110.497 46.4927V50H109.601V44.1697H110.467V45.0807H110.543C110.679 44.7846 110.887 44.5467 111.165 44.3671C111.444 44.1849 111.803 44.0938 112.243 44.0938C112.638 44.0938 112.983 44.1748 113.279 44.3367C113.575 44.4961 113.806 44.7391 113.97 45.0655C114.135 45.3894 114.217 45.7994 114.217 46.2953V50H113.321V46.3561C113.321 45.898 113.202 45.5412 112.964 45.2857C112.727 45.0275 112.4 44.8985 111.985 44.8985C111.699 44.8985 111.444 44.9605 111.218 45.0845C110.996 45.2085 110.82 45.3894 110.691 45.6273C110.562 45.8652 110.497 46.1536 110.497 46.4927ZM116.721 50.0608C116.533 50.0608 116.373 49.9937 116.239 49.8596C116.104 49.7255 116.037 49.5648 116.037 49.3775C116.037 49.1903 116.104 49.0296 116.239 48.8955C116.373 48.7613 116.533 48.6943 116.721 48.6943C116.908 48.6943 117.069 48.7613 117.203 48.8955C117.337 49.0296 117.404 49.1903 117.404 49.3775C117.404 49.5015 117.372 49.6154 117.309 49.7191C117.248 49.8229 117.166 49.9064 117.062 49.9697C116.961 50.0304 116.847 50.0608 116.721 50.0608ZM122.567 50V42.2263H125.193C125.801 42.2263 126.299 42.33 126.689 42.5375C127.079 42.7425 127.367 43.0246 127.554 43.384C127.742 43.7433 127.835 44.152 127.835 44.61C127.835 45.068 127.742 45.4742 127.554 45.8285C127.367 46.1827 127.08 46.4611 126.693 46.6635C126.305 46.8634 125.811 46.9634 125.208 46.9634H123.083V46.1131H125.178C125.593 46.1131 125.927 46.0524 126.18 45.9309C126.436 45.8095 126.621 45.6374 126.734 45.4147C126.851 45.1895 126.909 44.9213 126.909 44.61C126.909 44.2988 126.851 44.0267 126.734 43.7939C126.618 43.5611 126.432 43.3814 126.176 43.2549C125.921 43.1259 125.583 43.0613 125.163 43.0613H123.508V50H122.567ZM126.226 46.5079L128.139 50H127.046L125.163 46.5079H126.226ZM131.878 50.1215C131.316 50.1215 130.832 49.9975 130.424 49.7495C130.019 49.499 129.707 49.1498 129.487 48.7019C129.269 48.2514 129.16 47.7276 129.16 47.1304C129.16 46.5332 129.269 46.0069 129.487 45.5514C129.707 45.0933 130.013 44.7365 130.405 44.481C130.8 44.2228 131.261 44.0938 131.787 44.0938C132.091 44.0938 132.39 44.1444 132.686 44.2456C132.983 44.3468 133.252 44.5113 133.495 44.7391C133.738 44.9643 133.931 45.2629 134.076 45.6349C134.22 46.0069 134.292 46.4649 134.292 47.0089V47.3885H129.798V46.6142H133.381C133.381 46.2852 133.315 45.9917 133.184 45.7336C133.055 45.4755 132.87 45.2717 132.63 45.1224C132.392 44.9731 132.111 44.8985 131.787 44.8985C131.43 44.8985 131.121 44.9871 130.861 45.1642C130.603 45.3388 130.404 45.5665 130.265 45.8474C130.126 46.1283 130.056 46.4295 130.056 46.7508V47.2671C130.056 47.7074 130.132 48.0806 130.284 48.3868C130.438 48.6905 130.652 48.922 130.925 49.0814C131.199 49.2383 131.516 49.3168 131.878 49.3168C132.113 49.3168 132.326 49.2839 132.516 49.2181C132.708 49.1498 132.874 49.0486 133.013 48.9144C133.152 48.7778 133.26 48.6082 133.336 48.4058L134.201 48.6487C134.11 48.9423 133.957 49.2004 133.742 49.4231C133.527 49.6432 133.261 49.8153 132.945 49.9393C132.628 50.0608 132.273 50.1215 131.878 50.1215ZM135.869 52.1864V44.1697H136.734V45.0959H136.84C136.906 44.9947 136.997 44.8656 137.114 44.7087C137.232 44.5493 137.402 44.4076 137.622 44.2836C137.845 44.157 138.146 44.0938 138.526 44.0938C139.017 44.0938 139.449 44.2165 139.824 44.462C140.198 44.7074 140.491 45.0554 140.701 45.5058C140.911 45.9563 141.016 46.4877 141.016 47.1C141.016 47.7175 140.911 48.2527 140.701 48.7057C140.491 49.1561 140.2 49.5053 139.828 49.7533C139.456 49.9988 139.027 50.1215 138.541 50.1215C138.166 50.1215 137.866 50.0595 137.641 49.9355C137.416 49.809 137.243 49.666 137.121 49.5066C137 49.3446 136.906 49.2105 136.84 49.1042H136.764V52.1864H135.869ZM136.749 47.0849C136.749 47.5252 136.814 47.9136 136.943 48.2502C137.072 48.5842 137.26 48.8461 137.508 49.0359C137.756 49.2232 138.06 49.3168 138.419 49.3168C138.794 49.3168 139.106 49.2181 139.357 49.0207C139.61 48.8208 139.8 48.5526 139.926 48.216C140.055 47.8769 140.12 47.4999 140.12 47.0849C140.12 46.6749 140.057 46.3055 139.93 45.9765C139.806 45.645 139.618 45.3831 139.364 45.1908C139.114 44.9959 138.799 44.8985 138.419 44.8985C138.055 44.8985 137.749 44.9909 137.501 45.1756C137.253 45.3578 137.065 45.6134 136.939 45.9423C136.812 46.2688 136.749 46.6496 136.749 47.0849ZM145.04 50.1215C144.479 50.1215 143.994 49.9975 143.587 49.7495C143.182 49.499 142.869 49.1498 142.649 48.7019C142.431 48.2514 142.323 47.7276 142.323 47.1304C142.323 46.5332 142.431 46.0069 142.649 45.5514C142.869 45.0933 143.175 44.7365 143.568 44.481C143.962 44.2228 144.423 44.0938 144.949 44.0938C145.253 44.0938 145.553 44.1444 145.849 44.2456C146.145 44.3468 146.414 44.5113 146.657 44.7391C146.9 44.9643 147.094 45.2629 147.238 45.6349C147.382 46.0069 147.454 46.4649 147.454 47.0089V47.3885H142.96V46.6142H146.544C146.544 46.2852 146.478 45.9917 146.346 45.7336C146.217 45.4755 146.032 45.2717 145.792 45.1224C145.554 44.9731 145.273 44.8985 144.949 44.8985C144.592 44.8985 144.284 44.9871 144.023 45.1642C143.765 45.3388 143.566 45.5665 143.427 45.8474C143.288 46.1283 143.218 46.4295 143.218 46.7508V47.2671C143.218 47.7074 143.294 48.0806 143.446 48.3868C143.601 48.6905 143.814 48.922 144.088 49.0814C144.361 49.2383 144.679 49.3168 145.04 49.3168C145.276 49.3168 145.488 49.2839 145.678 49.2181C145.87 49.1498 146.036 49.0486 146.175 48.9144C146.314 48.7778 146.422 48.6082 146.498 48.4058L147.363 48.6487C147.272 48.9423 147.119 49.2004 146.904 49.4231C146.689 49.6432 146.423 49.8153 146.107 49.9393C145.791 50.0608 145.435 50.1215 145.04 50.1215ZM150.747 50.1367C150.377 50.1367 150.042 50.0671 149.741 49.9279C149.44 49.7862 149.201 49.5825 149.023 49.3168C148.846 49.0486 148.758 48.7246 148.758 48.3451C148.758 48.011 148.823 47.7403 148.955 47.5328C149.087 47.3227 149.263 47.1583 149.483 47.0393C149.703 46.9204 149.946 46.8318 150.211 46.7736C150.48 46.7129 150.749 46.6648 151.02 46.6294C151.374 46.5838 151.661 46.5497 151.882 46.5269C152.104 46.5016 152.266 46.4598 152.367 46.4016C152.471 46.3434 152.523 46.2422 152.523 46.098V46.0676C152.523 45.6931 152.421 45.4021 152.216 45.1946C152.013 44.9871 151.706 44.8833 151.293 44.8833C150.866 44.8833 150.53 44.9769 150.287 45.1642C150.044 45.3515 149.874 45.5514 149.775 45.7639L148.925 45.4603C149.077 45.106 149.279 44.8302 149.532 44.6328C149.788 44.4329 150.066 44.2937 150.367 44.2152C150.671 44.1343 150.969 44.0938 151.263 44.0938C151.45 44.0938 151.665 44.1166 151.908 44.1621C152.154 44.2051 152.39 44.295 152.618 44.4316C152.848 44.5683 153.039 44.7745 153.191 45.0503C153.343 45.3262 153.419 45.6956 153.419 46.1587V50H152.523V49.2105H152.478C152.417 49.337 152.316 49.4724 152.174 49.6167C152.032 49.7609 151.844 49.8836 151.608 49.9848C151.373 50.0861 151.086 50.1367 150.747 50.1367ZM150.883 49.332C151.238 49.332 151.536 49.2624 151.779 49.1232C152.025 48.984 152.209 48.8044 152.333 48.5842C152.46 48.364 152.523 48.1325 152.523 47.8896V47.0697C152.485 47.1152 152.402 47.157 152.273 47.1949C152.146 47.2304 151.999 47.262 151.832 47.2898C151.668 47.3151 151.507 47.3379 151.35 47.3582C151.196 47.3759 151.071 47.3911 150.974 47.4037C150.742 47.4341 150.524 47.4834 150.322 47.5517C150.122 47.6175 149.96 47.7175 149.836 47.8516C149.714 47.9832 149.653 48.1629 149.653 48.3906C149.653 48.7019 149.769 48.9372 149.999 49.0966C150.232 49.2535 150.527 49.332 150.883 49.332ZM157.803 44.1697V44.9289H154.782V44.1697H157.803ZM155.662 42.7728H156.558V48.3299C156.558 48.5829 156.595 48.7727 156.668 48.8993C156.744 49.0232 156.84 49.1068 156.957 49.1498C157.076 49.1903 157.201 49.2105 157.333 49.2105C157.431 49.2105 157.512 49.2054 157.576 49.1953C157.639 49.1827 157.689 49.1725 157.727 49.165L157.91 49.9697C157.849 49.9924 157.764 50.0152 157.655 50.038C157.546 50.0633 157.409 50.0759 157.242 50.0759C156.988 50.0759 156.74 50.0215 156.498 49.9127C156.257 49.8039 156.057 49.6382 155.898 49.4155C155.741 49.1928 155.662 48.9119 155.662 48.5728V42.7728Z" fill="white"/>
</svg>
