<svg width="24" height="25" viewBox="0 0 24 25" fill="none" xmlns="http://www.w3.org/2000/svg">
<g clip-path="url(#clip0_664_2559)">
<path d="M12 24.5C18.627 24.5 24 19.127 24 12.5C24 5.873 18.627 0.5 12 0.5C5.373 0.5 0 5.873 0 12.5C0 19.127 5.373 24.5 12 24.5ZM17.06 11.06L11.56 16.56C11.2787 16.8409 10.8975 16.9987 10.5 16.9987C10.1025 16.9987 9.72125 16.8409 9.44 16.56L7.44 14.56C7.17504 14.2757 7.03079 13.8996 7.03765 13.511C7.04451 13.1224 7.20193 12.7516 7.47676 12.4768C7.75158 12.2019 8.12235 12.0445 8.51095 12.0377C8.89956 12.0308 9.27565 12.175 9.56 12.44L10.5 13.379L14.94 8.939C15.223 8.66589 15.602 8.51488 15.9953 8.51848C16.3886 8.52208 16.7647 8.68001 17.0427 8.95826C17.3207 9.2365 17.4783 9.6128 17.4815 10.0061C17.4847 10.3994 17.3334 10.7772 17.06 11.06Z" fill="#00DC8A"/>
</g>
<defs>
<clipPath id="clip0_664_2559">
<rect width="24" height="24" fill="white" transform="translate(0 0.5)"/>
</clipPath>
</defs>
</svg>
