<svg width="21" height="20" viewBox="0 0 21 20" fill="none" xmlns="http://www.w3.org/2000/svg">
<mask id="path-1-inside-1_1007_675" fill="white">
<path d="M19 7.99979C19 7.73457 18.8947 7.48022 18.7071 7.29268C18.5196 7.10514 18.2652 6.99979 18 6.99979C17.7348 6.99979 17.4804 7.10514 17.2929 7.29268C17.1054 7.48022 17 7.73457 17 7.99979H19ZM5.00002 7.99979C5.00002 7.73457 4.89466 7.48022 4.70713 7.29268C4.51959 7.10514 4.26524 6.99979 4.00002 6.99979C3.7348 6.99979 3.48045 7.10514 3.29291 7.29268C3.10538 7.48022 3.00002 7.73457 3.00002 7.99979H5.00002ZM19.293 10.7068C19.4816 10.8889 19.7342 10.9897 19.9964 10.9875C20.2586 10.9852 20.5094 10.88 20.6948 10.6946C20.8802 10.5092 20.9854 10.2584 20.9877 9.99619C20.99 9.73399 20.8892 9.48139 20.707 9.29279L19.293 10.7068ZM11 0.999786L11.707 0.292786C11.5195 0.105315 11.2652 0 11 0C10.7349 0 10.4805 0.105315 10.293 0.292786L11 0.999786ZM1.29302 9.29279C1.19751 9.38503 1.12133 9.49538 1.06892 9.61738C1.01651 9.73939 0.988924 9.87061 0.98777 10.0034C0.986616 10.1362 1.01192 10.2678 1.0622 10.3907C1.11248 10.5136 1.18673 10.6253 1.28063 10.7192C1.37452 10.8131 1.48617 10.8873 1.60907 10.9376C1.73196 10.9879 1.86364 11.0132 1.99642 11.012C2.1292 11.0109 2.26042 10.9833 2.38242 10.9309C2.50443 10.8785 2.61477 10.8023 2.70702 10.7068L1.29302 9.29279ZM6.00002 19.9998H16V17.9998H6.00002V19.9998ZM19 16.9998V7.99979H17V16.9998H19ZM5.00002 16.9998V7.99979H3.00002V16.9998H5.00002ZM20.707 9.29279L11.707 0.292786L10.293 1.70679L19.293 10.7068L20.707 9.29279ZM10.293 0.292786L1.29302 9.29279L2.70702 10.7068L11.707 1.70679L10.293 0.292786ZM16 19.9998C16.7957 19.9998 17.5587 19.6837 18.1213 19.1211C18.684 18.5585 19 17.7954 19 16.9998H17C17 17.265 16.8947 17.5194 16.7071 17.7069C16.5196 17.8944 16.2652 17.9998 16 17.9998V19.9998ZM6.00002 17.9998C5.7348 17.9998 5.48045 17.8944 5.29291 17.7069C5.10538 17.5194 5.00002 17.265 5.00002 16.9998H3.00002C3.00002 17.7954 3.31609 18.5585 3.8787 19.1211C4.44131 19.6837 5.20437 19.9998 6.00002 19.9998V17.9998Z"/>
</mask>
<path d="M19 7.99979C19 7.73457 18.8947 7.48022 18.7071 7.29268C18.5196 7.10514 18.2652 6.99979 18 6.99979C17.7348 6.99979 17.4804 7.10514 17.2929 7.29268C17.1054 7.48022 17 7.73457 17 7.99979H19ZM5.00002 7.99979C5.00002 7.73457 4.89466 7.48022 4.70713 7.29268C4.51959 7.10514 4.26524 6.99979 4.00002 6.99979C3.7348 6.99979 3.48045 7.10514 3.29291 7.29268C3.10538 7.48022 3.00002 7.73457 3.00002 7.99979H5.00002ZM19.293 10.7068C19.4816 10.8889 19.7342 10.9897 19.9964 10.9875C20.2586 10.9852 20.5094 10.88 20.6948 10.6946C20.8802 10.5092 20.9854 10.2584 20.9877 9.99619C20.99 9.73399 20.8892 9.48139 20.707 9.29279L19.293 10.7068ZM11 0.999786L11.707 0.292786C11.5195 0.105315 11.2652 0 11 0C10.7349 0 10.4805 0.105315 10.293 0.292786L11 0.999786ZM1.29302 9.29279C1.19751 9.38503 1.12133 9.49538 1.06892 9.61738C1.01651 9.73939 0.988924 9.87061 0.98777 10.0034C0.986616 10.1362 1.01192 10.2678 1.0622 10.3907C1.11248 10.5136 1.18673 10.6253 1.28063 10.7192C1.37452 10.8131 1.48617 10.8873 1.60907 10.9376C1.73196 10.9879 1.86364 11.0132 1.99642 11.012C2.1292 11.0109 2.26042 10.9833 2.38242 10.9309C2.50443 10.8785 2.61477 10.8023 2.70702 10.7068L1.29302 9.29279ZM6.00002 19.9998H16V17.9998H6.00002V19.9998ZM19 16.9998V7.99979H17V16.9998H19ZM5.00002 16.9998V7.99979H3.00002V16.9998H5.00002ZM20.707 9.29279L11.707 0.292786L10.293 1.70679L19.293 10.7068L20.707 9.29279ZM10.293 0.292786L1.29302 9.29279L2.70702 10.7068L11.707 1.70679L10.293 0.292786ZM16 19.9998C16.7957 19.9998 17.5587 19.6837 18.1213 19.1211C18.684 18.5585 19 17.7954 19 16.9998H17C17 17.265 16.8947 17.5194 16.7071 17.7069C16.5196 17.8944 16.2652 17.9998 16 17.9998V19.9998ZM6.00002 17.9998C5.7348 17.9998 5.48045 17.8944 5.29291 17.7069C5.10538 17.5194 5.00002 17.265 5.00002 16.9998H3.00002C3.00002 17.7954 3.31609 18.5585 3.8787 19.1211C4.44131 19.6837 5.20437 19.9998 6.00002 19.9998V17.9998Z" fill="#555555"/>
<path d="M17 8.49979H19V7.49979H17V8.49979ZM3.00002 8.49979H5.00002V7.49979H3.00002V8.49979ZM20.3535 8.93923L18.9395 10.3532L19.6466 11.0603L21.0606 9.64634L20.3535 8.93923ZM3.06057 10.3532L1.64657 8.93923L0.939467 9.64634L2.35347 11.0603L3.06057 10.3532ZM16.5 19.9998V17.9998H15.5V19.9998H16.5ZM5.50002 17.9998V19.9998H6.50002V17.9998H5.50002ZM17 17.4998H19V16.4998H17V17.4998ZM3.00002 17.4998H5.00002V16.4998H3.00002V17.4998ZM3.00002 7.99979H2.00002H3.00002ZM19.293 10.7068L18.5859 11.4139L18.5921 11.42L18.5983 11.4261L19.293 10.7068ZM20.707 9.29279L21.4263 8.59807L21.4203 8.59182L21.4141 8.58568L20.707 9.29279ZM11 0.999786L10.2929 1.70689L11 2.414L11.7071 1.70689L11 0.999786ZM11.707 0.292786L12.4141 -0.41432L12.414 -0.414427L11.707 0.292786ZM10.293 0.292786L9.58602 -0.414427L9.58591 -0.41432L10.293 0.292786ZM1.29302 9.29279L1.98773 10.0121L1.99398 10.006L2.00013 9.99989L1.29302 9.29279ZM2.70702 10.7068L1.99991 9.99968L1.99377 10.0058L1.98773 10.0121L2.70702 10.7068ZM6.00002 19.9998V20.9998V19.9998ZM16 19.9998V20.9998V19.9998ZM19 16.9998H20H19ZM10.293 1.70679L9.58591 0.99968L8.87881 1.70679L9.58591 2.41389L10.293 1.70679ZM11.707 1.70679L12.4141 2.41389L13.1212 1.70679L12.4141 0.99968L11.707 1.70679ZM20 7.99979C20 7.46936 19.7893 6.96065 19.4142 6.58557L18 7.99979H20ZM19.4142 6.58557C19.0392 6.2105 18.5305 5.99979 18 5.99979V7.99979L19.4142 6.58557ZM18 5.99979C17.4696 5.99979 16.9609 6.2105 16.5858 6.58557L18 7.99979V5.99979ZM16.5858 6.58557C16.2107 6.96065 16 7.46936 16 7.99979H18L16.5858 6.58557ZM6.00002 7.99979C6.00002 7.46935 5.78931 6.96065 5.41423 6.58557L4.00002 7.99979H4.00002H6.00002ZM5.41423 6.58557C5.03916 6.2105 4.53045 5.99979 4.00002 5.99979V7.99979H4.00002L5.41423 6.58557ZM4.00002 5.99979C3.46959 5.99979 2.96088 6.2105 2.58581 6.58557L4.00002 7.99979H4.00002V5.99979ZM2.58581 6.58557C2.21073 6.96065 2.00002 7.46935 2.00002 7.99979H4.00002H4.00002L2.58581 6.58557ZM18.5983 11.4261C18.9755 11.7904 19.4807 11.992 20.0051 11.9874L19.9877 9.9875L18.5983 11.4261ZM20.0051 11.9874C20.5295 11.9829 21.0311 11.7725 21.4019 11.4017L19.9877 9.9875L20.0051 11.9874ZM21.4019 11.4017C21.7728 11.0309 21.9831 10.5293 21.9877 10.0049L19.9877 9.9875H19.9877L21.4019 11.4017ZM21.9877 10.0049C21.9922 9.48048 21.7906 8.97528 21.4263 8.59807L19.9877 9.9875L21.9877 10.0049ZM11.7071 1.70689L12.4141 0.999893L10.9999 -0.41432L10.2929 0.29268L11.7071 1.70689ZM12.414 -0.414427C12.039 -0.789369 11.5303 -1 11 -1V1V1L12.414 -0.414427ZM11 -1C10.4697 -1 9.96108 -0.789369 9.58602 -0.414427L11 1V1V-1ZM9.58591 0.999893L10.2929 1.70689L11.7071 0.29268L11.0001 -0.41432L9.58591 0.999893ZM0.598308 8.5735C0.407288 8.75799 0.254924 8.97868 0.150106 9.22269L1.98773 10.0121H1.98773L0.598308 8.5735ZM0.150106 9.22269C0.0452876 9.4667 -0.00988489 9.72914 -0.0121925 9.9947L1.98773 10.0121H1.98773L0.150106 9.22269ZM-0.0121925 9.9947C-0.0145001 10.2603 0.0361034 10.5236 0.136665 10.7694L1.98773 10.0121L-0.0121925 9.9947ZM0.136665 10.7694C0.237227 11.0152 0.385734 11.2385 0.573518 11.4263L1.98773 10.0121L0.136665 10.7694ZM0.573518 11.4263C0.761304 11.6141 0.984607 11.7626 1.2304 11.8631L1.98773 10.0121H1.98773L0.573518 11.4263ZM1.2304 11.8631C1.47619 11.9637 1.73955 12.0143 2.00511 12.012L1.98773 10.0121L1.98773 10.0121L1.2304 11.8631ZM2.00511 12.012C2.27067 12.0097 2.53311 11.9545 2.77712 11.8497L1.98773 10.0121L2.00511 12.012ZM2.77712 11.8497C3.02113 11.7449 3.24182 11.5925 3.42631 11.4015L1.98773 10.0121L1.98773 10.0121L2.77712 11.8497ZM6.00002 20.9998H16V18.9998H6.00002V20.9998ZM16 16.9998H6.00002V18.9998H16V16.9998ZM20 16.9998V7.99979H18V16.9998H20ZM16 7.99979V16.9998H18V7.99979H16ZM6.00002 16.9998V7.99979H4.00002V16.9998H6.00002ZM2.00002 7.99979V16.9998H4.00002V7.99979H2.00002ZM21.4141 8.58568L12.4141 -0.41432L10.9999 0.999893L19.9999 9.99989L21.4141 8.58568ZM10.9999 -0.41432L9.58591 0.99968L11.0001 2.41389L12.4141 0.999893L10.9999 -0.41432ZM9.58591 2.41389L18.5859 11.4139L20.0001 9.99968L11.0001 0.99968L9.58591 2.41389ZM9.58591 -0.41432L0.585913 8.58568L2.00013 9.99989L11.0001 0.999893L9.58591 -0.41432ZM3.41413 11.4139L12.4141 2.41389L10.9999 0.99968L1.99991 9.99968L3.41413 11.4139ZM12.4141 0.99968L11.0001 -0.41432L9.58591 0.999893L10.9999 2.41389L12.4141 0.99968ZM16 20.9998C17.0609 20.9998 18.0783 20.5784 18.8284 19.8282L17.4142 18.414C17.0392 18.7891 16.5305 18.9998 16 18.9998V20.9998ZM18.8284 19.8282C19.5786 19.0781 20 18.0607 20 16.9998H18C18 17.5302 17.7893 18.0389 17.4142 18.414L18.8284 19.8282ZM16 16.9998L17.4142 18.414C17.7893 18.0389 18 17.5302 18 16.9998H16ZM16 16.9998H16V18.9998C16.5304 18.9998 17.0392 18.7891 17.4142 18.414L16 16.9998ZM6.00002 16.9998L4.58581 18.414C4.96088 18.7891 5.46959 18.9998 6.00002 18.9998V16.9998ZM6.00002 16.9998H4.00002C4.00002 17.5302 4.21073 18.0389 4.58581 18.414L6.00002 16.9998ZM2.00002 16.9998C2.00002 18.0607 2.42145 19.0781 3.17159 19.8282L4.58581 18.414C4.21073 18.0389 4.00002 17.5302 4.00002 16.9998H2.00002ZM3.17159 19.8282C3.92174 20.5784 4.93915 20.9998 6.00002 20.9998V18.9998C5.46959 18.9998 4.96088 18.7891 4.58581 18.414L3.17159 19.8282Z" fill="#555555" mask="url(#path-1-inside-1_1007_675)"/>
</svg>
