<svg width="41" height="41" viewBox="0 0 41 41" fill="none" xmlns="http://www.w3.org/2000/svg">
<rect x="0.75" y="0.587036" width="40" height="40" rx="20" fill="#131313"/>
<path d="M21.7776 10.5879C22.5073 10.5851 23.2371 10.5924 23.9666 10.6099L24.1606 10.6169C24.3846 10.6249 24.6056 10.6349 24.8726 10.6469C25.9366 10.6969 26.6626 10.8649 27.2996 11.1119C27.9596 11.3659 28.5156 11.7099 29.0716 12.2659C29.58 12.7655 29.9734 13.3698 30.2246 14.0369C30.4716 14.6739 30.6396 15.4009 30.6896 16.4649C30.7016 16.7309 30.7116 16.9529 30.7196 17.1769L30.7256 17.3709C30.7434 18.1001 30.751 18.8295 30.7486 19.5589L30.7496 20.3049V21.6149C30.7521 22.3446 30.7444 23.0744 30.7266 23.8039L30.7206 23.9979C30.7126 24.2219 30.7026 24.4429 30.6906 24.7099C30.6406 25.7739 30.4706 26.4999 30.2246 27.1369C29.9742 27.8047 29.5807 28.4095 29.0716 28.9089C28.5716 29.4172 27.9669 29.8107 27.2996 30.0619C26.6626 30.3089 25.9366 30.4769 24.8726 30.5269C24.6056 30.5389 24.3846 30.5489 24.1606 30.5569L23.9666 30.5629C23.2371 30.5807 22.5073 30.5883 21.7776 30.5859L21.0316 30.5869H19.7226C18.9929 30.5894 18.2631 30.5817 17.5336 30.5639L17.3396 30.5579C17.1022 30.5493 16.8649 30.5393 16.6276 30.5279C15.5636 30.4779 14.8376 30.3079 14.1996 30.0619C13.5323 29.8112 12.9278 29.4177 12.4286 28.9089C11.9196 28.4092 11.5258 27.8045 11.2746 27.1369C11.0276 26.4999 10.8596 25.7739 10.8096 24.7099C10.7985 24.4726 10.7885 24.2353 10.7796 23.9979L10.7746 23.8039C10.7562 23.0744 10.7478 22.3446 10.7496 21.6149V19.5589C10.7468 18.8295 10.7541 18.1001 10.7716 17.3709L10.7786 17.1769C10.7866 16.9529 10.7966 16.7309 10.8086 16.4649C10.8586 15.3999 11.0266 14.6749 11.2736 14.0369C11.525 13.3695 11.9196 12.7653 12.4296 12.2669C12.9285 11.7577 13.5326 11.3635 14.1996 11.1119C14.8376 10.8649 15.5626 10.6969 16.6276 10.6469L17.3396 10.6169L17.5336 10.6119C18.2628 10.5935 18.9922 10.5851 19.7216 10.5869L21.7776 10.5879ZM20.7496 15.5879C20.0871 15.5785 19.4294 15.7009 18.8146 15.948C18.1998 16.195 17.6402 16.5618 17.1684 17.027C16.6966 17.4921 16.322 18.0464 16.0663 18.6577C15.8106 19.2689 15.6789 19.9248 15.6789 20.5874C15.6789 21.25 15.8106 21.9059 16.0663 22.5171C16.322 23.1284 16.6966 23.6827 17.1684 24.1478C17.6402 24.613 18.1998 24.9798 18.8146 25.2268C19.4294 25.4739 20.0871 25.5963 20.7496 25.5869C22.0757 25.5869 23.3475 25.0601 24.2851 24.1224C25.2228 23.1848 25.7496 21.913 25.7496 20.5869C25.7496 19.2608 25.2228 17.989 24.2851 17.0514C23.3475 16.1137 22.0757 15.5879 20.7496 15.5879ZM20.7496 17.5879C21.1481 17.5806 21.5441 17.6527 21.9144 17.8001C22.2847 17.9475 22.6219 18.1672 22.9064 18.4464C23.1908 18.7256 23.4168 19.0587 23.571 19.4262C23.7253 19.7938 23.8048 20.1883 23.8049 20.5869C23.8049 20.9855 23.7256 21.3801 23.5714 21.7476C23.4173 22.1152 23.1914 22.4483 22.9071 22.7276C22.6227 23.0069 22.2856 23.2268 21.9153 23.3743C21.5451 23.5218 21.1491 23.5941 20.7506 23.5869C19.955 23.5869 19.1919 23.2708 18.6293 22.7082C18.0667 22.1456 17.7506 21.3826 17.7506 20.5869C17.7506 19.7913 18.0667 19.0282 18.6293 18.4656C19.1919 17.903 19.955 17.5869 20.7506 17.5869L20.7496 17.5879ZM25.9996 14.0879C25.677 14.1008 25.3719 14.2381 25.1482 14.4709C24.9245 14.7037 24.7996 15.014 24.7996 15.3369C24.7996 15.6598 24.9245 15.9701 25.1482 16.2029C25.3719 16.4358 25.677 16.573 25.9996 16.5859C26.3311 16.5859 26.6491 16.4542 26.8835 16.2198C27.1179 15.9854 27.2496 15.6674 27.2496 15.3359C27.2496 15.0044 27.1179 14.6864 26.8835 14.452C26.6491 14.2176 26.3311 14.0859 25.9996 14.0859V14.0879Z" fill="white"/>
</svg>
