<svg width="65" height="53" viewBox="0 0 65 53" fill="none" xmlns="http://www.w3.org/2000/svg">
<path fill-rule="evenodd" clip-rule="evenodd" d="M33.5014 14.0781C34.1372 15.015 34.6307 16.0941 34.982 17.3153H46.0237C45.6723 14.7724 44.8777 12.447 43.6397 10.339C42.4017 8.21433 40.804 6.38242 38.8466 4.84328C36.9059 3.30414 34.6809 2.11632 32.1714 1.27983C29.6619 0.42661 26.9517 0 24.0407 0C20.6446 0 17.491 0.593908 14.58 1.78172C11.669 2.96954 9.11774 4.70107 6.92614 6.97633C4.73453 9.25158 3.02809 12.0287 1.80682 15.3078C0.602273 18.5701 0 22.2841 0 26.4498C0 31.8703 1.01215 36.5546 3.03646 40.5028C5.07749 44.4343 7.92156 47.4708 11.5687 49.6122C15.2158 51.7369 19.4484 52.7992 24.2666 52.7992C28.5829 52.7992 32.414 51.9293 35.7599 50.1894C36.8626 49.6105 37.8872 48.9516 38.8337 48.2128L38.8837 53H46.1945L46.5 39.9508C46.5 34.2268 50.1746 29.7042 54.1319 29.7042C56.4639 29.7042 57.3826 31.2588 57.3826 33.1668C57.3826 35.1455 56.3226 37.4068 55.1919 38.5375H63.3186C63.9546 37.4775 64.8733 35.0042 64.8733 31.6828C64.8733 26.5948 61.6933 23.7682 57.3826 23.7682C51.2346 23.7682 47.772 28.7148 46.5 34.2268V31.2487C46.5003 31.1883 46.5005 31.1278 46.5005 31.0672V24.5928H46.5V24.4748H38.5853L38.6794 33.4693C38.2378 34.6499 37.1567 35.883 36.1998 36.9744L36.1998 36.9745C35.5867 37.6737 35.0247 38.3148 34.7144 38.8468C33.9045 40.2603 32.7058 40.8508 31.2324 41.5766C31.0318 41.6755 30.826 41.7768 30.6155 41.883C28.8756 42.753 26.776 43.188 24.3168 43.188C21.6065 43.188 19.256 42.5355 17.2651 41.2306C15.2743 39.9089 13.7352 37.9934 12.6477 35.4839C11.5603 32.9744 11.0166 29.9296 11.0166 26.3494C11.0166 22.7693 11.5687 19.7412 12.6728 17.2652C13.777 14.7724 15.3161 12.8736 17.2902 11.5687C19.2811 10.2637 21.5898 9.61127 24.2164 9.61127C25.6217 9.61127 26.9015 9.78693 28.0559 10.1383C29.227 10.4896 30.2642 10.9998 31.1676 11.669C32.0877 12.3215 32.8657 13.1245 33.5014 14.0781ZM31.4713 35.3335C34.7236 35.3335 37.3601 32.6969 37.3601 29.4446C37.3601 26.1922 34.7236 23.5557 31.4713 23.5557C28.2189 23.5557 25.5824 26.1922 25.5824 29.4446C25.5824 32.6969 28.2189 35.3335 31.4713 35.3335ZM64.7777 47.1114C64.7777 50.3637 62.1412 53.0003 58.8888 53.0003C55.6365 53.0003 53 50.3637 53 47.1114C53 43.8591 55.6365 41.2225 58.8888 41.2225C62.1412 41.2225 64.7777 43.8591 64.7777 47.1114Z" fill="white"/>
</svg>
