<svg width="25" height="24" viewBox="0 0 25 24" fill="none" xmlns="http://www.w3.org/2000/svg">
<path d="M13.6976 2.04926L13.6994 2.0502L20.2083 5.55961C20.2084 5.55967 20.2085 5.55973 20.2086 5.55979C20.6313 5.78917 20.9067 6.24673 20.9067 6.7701C20.9067 7.29347 20.6313 7.75102 20.2086 7.9804C20.2085 7.98046 20.2084 7.98052 20.2083 7.98058L13.6994 11.49L13.6994 11.4899L13.691 11.4946C13.3853 11.6671 13.0319 11.7501 12.6667 11.7501C12.3107 11.7501 11.9511 11.6612 11.6214 11.4886L5.11507 7.98058C5.1149 7.98049 5.11474 7.9804 5.11458 7.98032C4.69205 7.75091 4.41669 7.29341 4.41669 6.7701C4.41669 6.2468 4.69204 5.7893 5.11456 5.55989C5.11473 5.5598 5.1149 5.55971 5.11507 5.55961L11.6234 2.05051C11.6235 2.05046 11.6236 2.0504 11.6237 2.05035C12.2768 1.69946 13.0577 1.70094 13.6976 2.04926ZM11.8694 11.0502L11.8694 11.0502L11.8733 11.0523C12.3793 11.3194 12.964 11.3194 13.4701 11.0523L13.4701 11.0523L13.474 11.0502L19.984 7.5402L19.984 7.54027L19.9918 7.53589C20.2022 7.41757 20.3103 7.23758 20.3634 7.09959C20.4147 6.96622 20.4267 6.84334 20.4267 6.7701C20.4267 6.71607 20.4231 6.58605 20.3701 6.441C20.3151 6.29068 20.199 6.10613 19.9747 5.99497L13.4765 2.49136C13.2233 2.35138 12.941 2.2801 12.6667 2.2801C12.3925 2.2801 12.1101 2.35136 11.857 2.49128L5.36083 5.98922C4.91668 6.22572 4.91669 6.70204 4.91669 6.76989V6.7701C4.91669 6.82412 4.92031 6.95414 4.9733 7.09919C5.02823 7.24952 5.14434 7.43406 5.3687 7.54522L11.8694 11.0502Z" fill="#555555" stroke="#555555"/>
<path d="M9.84029 22.0726L9.8397 22.0723L3.78206 19.0534C3.78167 19.0532 3.78129 19.0531 3.7809 19.0529C2.93922 18.6273 2.41669 17.7798 2.41669 16.8398V11.1198C2.41669 10.6438 2.65624 10.2152 3.0579 9.96612C3.47277 9.71499 3.95966 9.69527 4.38308 9.90698L4.38367 9.90728L10.4413 12.9261C10.4417 12.9263 10.4421 12.9265 10.4425 12.9267C11.285 13.3526 11.8067 14.1907 11.8067 15.1398V20.8598C11.8067 21.3364 11.5665 21.7655 11.1638 22.0145L11.1638 22.0144L11.1592 22.0174C10.9444 22.1534 10.6983 22.2198 10.4467 22.2198C10.2475 22.2198 10.0338 22.1693 9.84029 22.0726ZM3.36308 10.3626L3.33524 10.3765L3.30934 10.3937C3.1935 10.471 2.91669 10.6926 2.91669 11.1198V16.8398C2.91669 17.5856 3.33052 18.2706 4.00278 18.6068C4.00288 18.6069 4.00298 18.6069 4.00308 18.607L10.0528 21.6368L10.0531 21.637C10.4361 21.8285 10.7597 21.6723 10.8503 21.627L10.8781 21.6131L10.904 21.5958C11.0199 21.5186 11.2967 21.2969 11.2967 20.8698V15.1498C11.2967 14.4039 10.8829 13.719 10.2106 13.3827C10.2105 13.3827 10.2104 13.3826 10.2103 13.3826L4.16059 10.3527L4.16029 10.3526C4.03205 10.2884 3.90562 10.2598 3.77669 10.2598C3.57987 10.2598 3.42592 10.3311 3.36308 10.3626Z" fill="#555555" stroke="#555555"/>
<path d="M14.1742 22.0176L14.1742 22.0176L14.1696 22.0147C13.7669 21.7658 13.5267 21.3367 13.5267 20.86V15.14C13.5267 14.1998 14.0494 13.3521 14.8914 12.9267C14.8916 12.9266 14.8918 12.9264 14.892 12.9263L20.9403 9.89722C20.9403 9.89718 20.9404 9.89715 20.9405 9.89712C20.9405 9.8971 20.9405 9.89708 20.9406 9.89707C21.3661 9.68444 21.8618 9.70684 22.2638 9.9553C22.6664 10.2042 22.9067 10.6334 22.9067 11.11V16.83C22.9067 17.7702 22.384 18.6178 21.542 19.0433C21.5418 19.0434 21.5415 19.0436 21.5413 19.0437L15.4928 22.0729L15.4861 22.0763L15.4796 22.0798C15.3035 22.1746 15.0974 22.22 14.8867 22.22C14.6351 22.22 14.389 22.1536 14.1742 22.0176ZM21.1731 10.3528L21.1728 10.3529L15.1231 13.3828C15.123 13.3828 15.1229 13.3829 15.1228 13.3829C14.4522 13.7184 14.0367 14.3922 14.0367 15.15V20.87C14.0367 21.2971 14.3135 21.5188 14.4293 21.596C14.5966 21.7076 14.9193 21.8177 15.2803 21.6372L15.2806 21.6371L21.3303 18.6072C21.3304 18.6072 21.3305 18.6071 21.3306 18.6071C22.0028 18.2708 22.4167 17.5858 22.4167 16.84V11.12C22.4167 10.6929 22.1399 10.4712 22.024 10.394L21.9981 10.3767L21.9703 10.3628C21.9074 10.3314 21.7535 10.26 21.5567 10.26C21.4277 10.26 21.3013 10.2887 21.1731 10.3528Z" fill="#555555" stroke="#555555"/>
</svg>
