<svg width="24" height="24" viewBox="0 0 24 24" fill="none" xmlns="http://www.w3.org/2000/svg">
<path fill-rule="evenodd" clip-rule="evenodd" d="M12 1.25C10.7402 1.25 9.53204 1.75044 8.64124 2.64124C7.75045 3.53204 7.25 4.74022 7.25 6C7.25 7.25978 7.75045 8.46796 8.64124 9.35876C9.53204 10.2496 10.7402 10.75 12 10.75C13.2598 10.75 14.468 10.2496 15.3588 9.35876C16.2496 8.46796 16.75 7.25978 16.75 6C16.75 4.74022 16.2496 3.53204 15.3588 2.64124C14.468 1.75044 13.2598 1.25 12 1.25ZM8.75 6C8.75 5.13805 9.09241 4.3114 9.7019 3.7019C10.3114 3.09241 11.138 2.75 12 2.75C12.862 2.75 13.6886 3.09241 14.2981 3.7019C14.9076 4.3114 15.25 5.13805 15.25 6C15.25 6.86195 14.9076 7.6886 14.2981 8.2981C13.6886 8.90759 12.862 9.25 12 9.25C11.138 9.25 10.3114 8.90759 9.7019 8.2981C9.09241 7.6886 8.75 6.86195 8.75 6Z" fill="#131313"/>
<path d="M18 3.25C17.8011 3.25 17.6103 3.32902 17.4697 3.46967C17.329 3.61032 17.25 3.80109 17.25 4C17.25 4.19891 17.329 4.38968 17.4697 4.53033C17.6103 4.67098 17.8011 4.75 18 4.75C19.377 4.75 20.25 5.656 20.25 6.5C20.25 7.344 19.377 8.25 18 8.25C17.8011 8.25 17.6103 8.32902 17.4697 8.46967C17.329 8.61032 17.25 8.80109 17.25 9C17.25 9.19891 17.329 9.38968 17.4697 9.53033C17.6103 9.67098 17.8011 9.75 18 9.75C19.937 9.75 21.75 8.417 21.75 6.5C21.75 4.583 19.937 3.25 18 3.25ZM6.75 4C6.75 3.80109 6.67098 3.61032 6.53033 3.46967C6.38968 3.32902 6.19891 3.25 6 3.25C4.063 3.25 2.25 4.583 2.25 6.5C2.25 8.417 4.063 9.75 6 9.75C6.19891 9.75 6.38968 9.67098 6.53033 9.53033C6.67098 9.38968 6.75 9.19891 6.75 9C6.75 8.80109 6.67098 8.61032 6.53033 8.46967C6.38968 8.32902 6.19891 8.25 6 8.25C4.624 8.25 3.75 7.344 3.75 6.5C3.75 5.656 4.624 4.75 6 4.75C6.19891 4.75 6.38968 4.67098 6.53033 4.53033C6.67098 4.38968 6.75 4.19891 6.75 4Z" fill="#131313"/>
<path fill-rule="evenodd" clip-rule="evenodd" d="M12 12.25C10.216 12.25 8.566 12.73 7.341 13.547C6.121 14.361 5.25 15.567 5.25 17C5.25 18.433 6.121 19.64 7.341 20.453C8.566 21.269 10.216 21.75 12 21.75C13.784 21.75 15.434 21.27 16.659 20.453C17.879 19.639 18.75 18.433 18.75 17C18.75 15.567 17.878 14.36 16.659 13.547C15.434 12.731 13.784 12.25 12 12.25ZM6.75 17C6.75 16.224 7.222 15.43 8.173 14.796C9.12 14.165 10.471 13.75 12 13.75C13.53 13.75 14.88 14.165 15.827 14.796C16.778 15.43 17.25 16.224 17.25 17C17.25 17.776 16.778 18.57 15.827 19.204C14.88 19.835 13.529 20.25 12 20.25C10.47 20.25 9.12 19.835 8.173 19.204C7.222 18.57 6.75 17.776 6.75 17Z" fill="#131313"/>
<path d="M19.267 13.8395C19.288 13.7432 19.3278 13.6519 19.3841 13.5709C19.4404 13.4899 19.5121 13.4208 19.5951 13.3676C19.6782 13.3144 19.7709 13.278 19.868 13.2607C19.9651 13.2434 20.0647 13.2453 20.161 13.2665C21.122 13.4775 21.989 13.8585 22.633 14.3855C23.276 14.9115 23.75 15.6355 23.75 16.4995C23.75 17.3645 23.276 18.0875 22.633 18.6135C21.989 19.1405 21.123 19.5215 20.161 19.7325C20.0647 19.7537 19.9653 19.7557 19.8682 19.7384C19.7712 19.7211 19.6786 19.6848 19.5955 19.6317C19.5125 19.5786 19.4408 19.5096 19.3844 19.4288C19.328 19.348 19.2881 19.2568 19.267 19.1605C19.2459 19.0643 19.2439 18.9648 19.2612 18.8678C19.2785 18.7708 19.3147 18.6781 19.3678 18.5951C19.421 18.5121 19.4899 18.4403 19.5707 18.384C19.6516 18.3276 19.7427 18.2877 19.839 18.2665C20.632 18.0935 21.265 17.7945 21.683 17.4525C22.101 17.1105 22.25 16.7755 22.25 16.4995C22.25 16.2235 22.101 15.8895 21.683 15.5465C21.265 15.2045 20.632 14.9065 19.839 14.7325C19.7427 14.7115 19.6515 14.6716 19.5707 14.6152C19.4898 14.5589 19.4208 14.4871 19.3677 14.4041C19.3146 14.3211 19.2783 14.2284 19.261 14.1313C19.2438 14.0343 19.2458 13.9348 19.267 13.8385M3.84 13.2665C4.0344 13.2241 4.2377 13.2606 4.40517 13.3681C4.57264 13.4756 4.69057 13.6451 4.733 13.8395C4.77543 14.0339 4.7389 14.2372 4.63145 14.4047C4.52399 14.5722 4.3544 14.6901 4.16 14.7325C3.368 14.9055 2.735 15.2045 2.317 15.5465C1.899 15.8885 1.75 16.2235 1.75 16.4995C1.75 16.7755 1.899 17.1095 2.317 17.4525C2.735 17.7945 3.368 18.0925 4.161 18.2665C4.3554 18.3092 4.52488 18.4274 4.63215 18.5951C4.73942 18.7627 4.7757 18.9661 4.733 19.1605C4.6903 19.3549 4.57212 19.5244 4.40447 19.6317C4.23681 19.739 4.0334 19.7752 3.839 19.7325C2.877 19.5215 2.011 19.1405 1.367 18.6135C0.724 18.0875 0.25 17.3635 0.25 16.4995C0.25 15.6345 0.724 14.9115 1.367 14.3855C2.011 13.8585 2.878 13.4775 3.84 13.2665Z" fill="#131313"/>
</svg>
