<svg width="48" height="49" viewBox="0 0 48 49" fill="none" xmlns="http://www.w3.org/2000/svg">
<g filter="url(#filter0_b_1704_6516)">
<rect x="48" y="0.5" width="48" height="48" rx="24" transform="rotate(90 48 0.5)" fill="#F9F9F9"/>
<rect x="47.5" y="1" width="47" height="47" rx="23.5" transform="rotate(90 47.5 1)" stroke="#E0E0E0"/>
<path fill-rule="evenodd" clip-rule="evenodd" d="M17.733 14.5431C18.95 13.3331 20.954 13.5481 21.973 14.9101L23.235 16.5941C24.065 17.7021 23.991 19.2501 23.006 20.2291L22.768 20.4671C22.7412 20.567 22.7384 20.6719 22.76 20.7731C22.823 21.1811 23.164 22.0451 24.592 23.4651C26.02 24.8851 26.89 25.2251 27.304 25.2891C27.4082 25.3112 27.5162 25.3081 27.619 25.2801L28.027 24.8741C28.903 24.0041 30.247 23.8411 31.331 24.4301L33.241 25.4701C34.878 26.3581 35.291 28.5821 33.951 29.9151L32.53 31.3271C32.082 31.7721 31.48 32.1431 30.746 32.2121C28.936 32.3811 24.719 32.1651 20.286 27.7581C16.149 23.6441 15.355 20.0561 15.254 18.2881C15.204 17.3941 15.626 16.6381 16.164 16.1041L17.733 14.5431ZM20.773 15.8091C20.266 15.1321 19.322 15.0781 18.79 15.6071L17.22 17.1671C16.89 17.4951 16.732 17.8571 16.752 18.2031C16.832 19.6081 17.472 22.8451 21.344 26.6951C25.406 30.7331 29.157 30.8541 30.607 30.7181C30.903 30.6911 31.197 30.5371 31.472 30.2641L32.892 28.8511C33.47 28.2771 33.343 27.2311 32.525 26.7871L30.615 25.7481C30.087 25.4621 29.469 25.5561 29.085 25.9381L28.63 26.3911L28.1 25.8591C28.63 26.3911 28.629 26.3921 28.628 26.3921L28.627 26.3941L28.624 26.3971L28.617 26.4031L28.602 26.4171C28.5595 26.4559 28.514 26.4913 28.466 26.5231C28.386 26.5761 28.28 26.6351 28.147 26.6841C27.877 26.7851 27.519 26.8391 27.077 26.7711C26.21 26.6381 25.061 26.0471 23.534 24.5291C22.008 23.0111 21.412 21.8691 21.278 21.0031C21.209 20.5611 21.264 20.2031 21.366 19.9331C21.4226 19.7813 21.5029 19.6395 21.604 19.5131L21.636 19.4781L21.65 19.4631L21.656 19.4571L21.659 19.4541L21.661 19.4521L21.949 19.1661C22.377 18.7391 22.437 18.0321 22.034 17.4931L20.773 15.8091Z" fill="#131313"/>
</g>
<defs>
<filter id="filter0_b_1704_6516" x="-4.44444" y="-3.94444" width="56.8889" height="56.8889" filterUnits="userSpaceOnUse" color-interpolation-filters="sRGB">
<feFlood flood-opacity="0" result="BackgroundImageFix"/>
<feGaussianBlur in="BackgroundImageFix" stdDeviation="2.22222"/>
<feComposite in2="SourceAlpha" operator="in" result="effect1_backgroundBlur_1704_6516"/>
<feBlend mode="normal" in="SourceGraphic" in2="effect1_backgroundBlur_1704_6516" result="shape"/>
</filter>
</defs>
</svg>
