<svg width="24" height="25" viewBox="0 0 24 25" fill="none" xmlns="http://www.w3.org/2000/svg">
<path fill-rule="evenodd" clip-rule="evenodd" d="M4.172 3.4718C3 4.6428 3 6.5288 3 10.2998V14.2998C3 18.0708 3 19.9568 4.172 21.1278C5.343 22.2998 7.229 22.2998 11 22.2998H13C16.771 22.2998 18.657 22.2998 19.828 21.1278C21 19.9568 21 18.0708 21 14.2998V10.2998C21 6.5288 21 4.6428 19.828 3.4718C18.657 2.2998 16.771 2.2998 13 2.2998H11C7.229 2.2998 5.343 2.2998 4.172 3.4718ZM7.25 8.2998C7.25 8.10089 7.32902 7.91013 7.46967 7.76947C7.61032 7.62882 7.80109 7.5498 8 7.5498H16C16.1989 7.5498 16.3897 7.62882 16.5303 7.76947C16.671 7.91013 16.75 8.10089 16.75 8.2998C16.75 8.49872 16.671 8.68948 16.5303 8.83013C16.3897 8.97079 16.1989 9.0498 16 9.0498H8C7.80109 9.0498 7.61032 8.97079 7.46967 8.83013C7.32902 8.68948 7.25 8.49872 7.25 8.2998ZM7.25 12.2998C7.25 12.1009 7.32902 11.9101 7.46967 11.7695C7.61032 11.6288 7.80109 11.5498 8 11.5498H16C16.1989 11.5498 16.3897 11.6288 16.5303 11.7695C16.671 11.9101 16.75 12.1009 16.75 12.2998C16.75 12.4987 16.671 12.6895 16.5303 12.8301C16.3897 12.9708 16.1989 13.0498 16 13.0498H8C7.80109 13.0498 7.61032 12.9708 7.46967 12.8301C7.32902 12.6895 7.25 12.4987 7.25 12.2998ZM8 15.5498C7.80109 15.5498 7.61032 15.6288 7.46967 15.7695C7.32902 15.9101 7.25 16.1009 7.25 16.2998C7.25 16.4987 7.32902 16.6895 7.46967 16.8301C7.61032 16.9708 7.80109 17.0498 8 17.0498H13C13.1989 17.0498 13.3897 16.9708 13.5303 16.8301C13.671 16.6895 13.75 16.4987 13.75 16.2998C13.75 16.1009 13.671 15.9101 13.5303 15.7695C13.3897 15.6288 13.1989 15.5498 13 15.5498H8Z" fill="#131313"/>
</svg>
