<svg width="24" height="24" viewBox="0 0 24 24" fill="none" xmlns="http://www.w3.org/2000/svg">
<path d="M20.3708 12.7235C20.0008 12.7235 19.6908 12.4435 19.6508 12.0735C19.4108 9.87348 18.2308 7.89348 16.4108 6.63348C16.0808 6.40348 16.0008 5.95348 16.2308 5.62348C16.4608 5.29348 16.9108 5.21348 17.2408 5.44348C19.4108 6.95348 20.8108 9.31348 21.1008 11.9235C21.1408 12.3235 20.8508 12.6835 20.4508 12.7235C20.4208 12.7235 20.4008 12.7235 20.3708 12.7235Z" fill="#131313"/>
<path d="M3.75103 12.7756C3.73103 12.7756 3.70103 12.7756 3.68103 12.7756C3.28103 12.7356 2.99103 12.3756 3.03103 11.9756C3.30103 9.36562 4.68103 7.00562 6.83103 5.48562C7.15103 5.25562 7.61103 5.33562 7.84103 5.65562C8.07103 5.98562 7.99103 6.43562 7.67103 6.66562C5.87103 7.94562 4.70103 9.92562 4.48103 12.1156C4.44103 12.4956 4.12103 12.7756 3.75103 12.7756Z" fill="#131313"/>
<path d="M15.9964 21.0964C14.7664 21.6864 13.4464 21.9864 12.0664 21.9864C10.6264 21.9864 9.25645 21.6664 7.97645 21.0164C7.61645 20.8464 7.47645 20.4064 7.65645 20.0464C7.82645 19.6864 8.26645 19.5464 8.62645 19.7164C9.25645 20.0364 9.92645 20.2564 10.6064 20.3864C11.5264 20.5664 12.4664 20.5764 13.3864 20.4164C14.0664 20.2964 14.7364 20.0864 15.3564 19.7864C15.7264 19.6164 16.1664 19.7564 16.3264 20.1264C16.5064 20.4864 16.3664 20.9264 15.9964 21.0964Z" fill="#131313"/>
<path d="M12.0505 2.005C10.5005 2.005 9.23047 3.265 9.23047 4.82501C9.23047 6.38501 10.4905 7.64501 12.0505 7.64501C13.6105 7.64501 14.8705 6.38501 14.8705 4.82501C14.8705 3.265 13.6105 2.005 12.0505 2.005Z" fill="#131313"/>
<path d="M5.0534 13.8655C3.5034 13.8655 2.2334 15.1255 2.2334 16.6855C2.2334 18.2455 3.4934 19.5055 5.0534 19.5055C6.6134 19.5055 7.8734 18.2455 7.8734 16.6855C7.8734 15.1255 6.6034 13.8655 5.0534 13.8655Z" fill="#131313"/>
<path d="M18.9655 13.8655C17.4155 13.8655 16.1455 15.1255 16.1455 16.6855C16.1455 18.2455 17.4055 19.5055 18.9655 19.5055C20.5255 19.5055 21.7855 18.2455 21.7855 16.6855C21.7855 15.1255 20.5255 13.8655 18.9655 13.8655Z" fill="#131313"/>
</svg>
