<svg width="42" height="43" viewBox="0 0 42 43" fill="none" xmlns="http://www.w3.org/2000/svg">
<path d="M4.86312 18.3712C4.11062 18.3712 3.51562 17.7762 3.51562 17.0237V12.9812C3.51562 8.23867 7.38312 4.37117 12.1256 4.37117H16.1681C16.9206 4.37117 17.5156 4.96617 17.5156 5.71867C17.5156 6.47117 16.9206 7.06617 16.1681 7.06617H12.1256C8.85312 7.06617 6.21062 9.72617 6.21062 12.9812V17.0237C6.21062 17.7762 5.59812 18.3712 4.86312 18.3712Z" fill="#131313"/>
<path d="M37.1525 18.3712C36.4175 18.3712 35.805 17.7762 35.805 17.0237V12.9812C35.805 9.70867 33.145 7.06617 29.89 7.06617H25.8475C25.095 7.06617 24.5 6.45367 24.5 5.71867C24.5 4.98367 25.095 4.37117 25.8475 4.37117H29.89C34.6325 4.37117 38.5 8.23867 38.5 12.9812V17.0237C38.5 17.7762 37.905 18.3712 37.1525 18.3712Z" fill="#131313"/>
<path d="M29.8972 39.3679H27.4647C26.7297 39.3679 26.1172 38.7729 26.1172 38.0204C26.1172 37.2854 26.7122 36.6729 27.4647 36.6729H29.8972C33.1697 36.6729 35.8122 34.0129 35.8122 30.7579V28.3429C35.8122 27.6079 36.4072 26.9954 37.1597 26.9954C37.8947 26.9954 38.5072 27.5904 38.5072 28.3429V30.7579C38.5072 35.5004 34.6397 39.3679 29.8972 39.3679Z" fill="#131313"/>
<path d="M16.1681 39.3663H12.1256C7.38312 39.3663 3.51562 35.4988 3.51562 30.7563V26.7138C3.51562 25.9613 4.11062 25.3663 4.86312 25.3663C5.61562 25.3663 6.21062 25.9613 6.21062 26.7138V30.7563C6.21062 34.0288 8.87062 36.6713 12.1256 36.6713H16.1681C16.9031 36.6713 17.5156 37.2663 17.5156 38.0188C17.5156 38.7713 16.9206 39.3663 16.1681 39.3663Z" fill="#131313"/>
<path d="M32.3091 20.5216H29.9291H12.0791H9.69906C8.94656 20.5216 8.35156 21.1341 8.35156 21.8691C8.35156 22.6041 8.94656 23.2166 9.69906 23.2166H12.0791H29.9291H32.3091C33.0616 23.2166 33.6566 22.6041 33.6566 21.8691C33.6566 21.1341 33.0616 20.5216 32.3091 20.5216Z" fill="#515C6C"/>
<path d="M17.3203 29.9933C15.0749 29.9933 13.2545 28.2237 13.1733 25.9986H28.8173C28.7361 28.2237 26.9157 29.9933 24.6703 29.9933H17.3203Z" fill="#131313" stroke="#131313" stroke-width="2.20036"/>
<path d="M28.8173 17.7433H13.1733C13.2545 15.5182 15.0749 13.7486 17.3203 13.7486H24.6703C26.9157 13.7486 28.7361 15.5182 28.8173 17.7433Z" fill="#131313" stroke="#131313" stroke-width="2.20036"/>
</svg>
