<svg width="64" height="65" viewBox="0 0 64 65" fill="none" xmlns="http://www.w3.org/2000/svg">
<path d="M31.9997 19.8333C32.5301 19.8333 33.0388 20.044 33.4139 20.419C33.789 20.7941 33.9997 21.3028 33.9997 21.8333V32.4999C33.9997 33.0304 33.789 33.5391 33.4139 33.9141C33.0388 34.2892 32.5301 34.4999 31.9997 34.4999C31.4692 34.4999 30.9605 34.2892 30.5855 33.9141C30.2104 33.5391 29.9997 33.0304 29.9997 32.4999V21.8333C29.9997 21.3028 30.2104 20.7941 30.5855 20.419C30.9605 20.044 31.4692 19.8333 31.9997 19.8333ZM31.9997 43.1666C32.7069 43.1666 33.3852 42.8856 33.8853 42.3855C34.3854 41.8854 34.6663 41.2072 34.6663 40.4999C34.6663 39.7927 34.3854 39.1144 33.8853 38.6143C33.3852 38.1142 32.7069 37.8333 31.9997 37.8333C31.2924 37.8333 30.6142 38.1142 30.1141 38.6143C29.614 39.1144 29.333 39.7927 29.333 40.4999C29.333 41.2072 29.614 41.8854 30.1141 42.3855C30.6142 42.8856 31.2924 43.1666 31.9997 43.1666Z" fill="#B94545"/>
<path fill-rule="evenodd" clip-rule="evenodd" d="M23.2613 5.96925C27.112 4.65192 29.5013 3.83325 32 3.83325C34.5013 3.83325 36.888 4.65192 40.7387 5.96925L42.6773 6.63592C46.6267 7.98525 49.6773 9.03058 51.8587 9.91592C52.9573 10.3613 53.904 10.7959 54.664 11.2359C55.3973 11.6626 56.1307 12.1933 56.6293 12.9053C57.1227 13.6066 57.3787 14.4706 57.5387 15.3053C57.7067 16.1693 57.8053 17.2066 57.872 18.3986C58 20.7613 58 24.0039 58 28.2066V32.4759C58 48.7453 45.712 56.5452 38.4053 59.7399L38.3333 59.7692C37.4267 60.1666 36.5733 60.5372 35.5947 60.7879C34.5627 61.0546 33.464 61.1666 32 61.1666C30.5333 61.1666 29.44 61.0546 28.4053 60.7879C27.4267 60.5372 26.5733 60.1666 25.6667 59.7692L25.5947 59.7399C18.288 56.5452 6 48.7453 6 32.4732V28.2066C6 24.0039 6 20.7613 6.128 18.3959C6.19467 17.2066 6.29333 16.1693 6.46133 15.3026C6.62133 14.4706 6.87733 13.6066 7.368 12.9026C7.86933 12.1933 8.60267 11.6626 9.336 11.2359C10.096 10.7959 11.0427 10.3613 12.1413 9.91592C14.3227 9.03058 17.3733 7.98525 21.3227 6.63592L23.2613 5.96925ZM32 7.83325C30.2453 7.83325 28.52 8.39858 24.2133 9.87058L22.688 10.3933C18.6533 11.7746 15.712 12.7826 13.648 13.6199C12.8568 13.9273 12.0871 14.2872 11.344 14.6973C11.15 14.8066 10.9646 14.9305 10.7893 15.0679C10.7363 15.1075 10.6872 15.1522 10.6427 15.2013C10.6078 15.2641 10.5792 15.3302 10.5573 15.3986C10.504 15.5479 10.4453 15.7613 10.3893 16.0599C10.2453 16.9048 10.1563 17.7582 10.1227 18.6146C10 20.8573 10 23.9879 10 28.2786V32.4759C10 46.2786 20.32 53.0706 27.1973 56.0732C28.1867 56.5052 28.76 56.7506 29.3973 56.9132C30.0053 57.0706 30.7467 57.1666 32 57.1666C33.2533 57.1666 33.9947 57.0706 34.6027 56.9132C35.2427 56.7533 35.8133 56.5052 36.8027 56.0732C43.6827 53.0706 54 46.2759 54 32.4759V28.2786C54 23.9879 54 20.8573 53.8773 18.6146C53.8438 17.7582 53.7548 16.9048 53.6107 16.0599C53.571 15.8356 53.5148 15.6146 53.4427 15.3986C53.4208 15.3302 53.3922 15.2641 53.3573 15.2013C53.3129 15.1522 53.2637 15.1075 53.2107 15.0679C53.0356 14.9295 52.8501 14.8047 52.656 14.6946C51.9128 14.2863 51.143 13.9282 50.352 13.6226C48.288 12.7826 45.3467 11.7746 41.312 10.3959L39.784 9.87058C35.48 8.39858 33.7547 7.83325 32 7.83325Z" fill="#B94545"/>
</svg>
