<svg width="24" height="25" viewBox="0 0 24 25" fill="none" xmlns="http://www.w3.org/2000/svg">
<path d="M10.1549 15.0728L10.1459 15.0518C10.0107 15.0148 9.87664 14.9738 9.74391 14.9288L9.73391 14.9248C8.35214 14.4527 7.15273 13.56 6.30378 12.372C5.45483 11.1839 4.99891 9.76001 4.99991 8.29981C4.99946 6.50792 5.68621 4.78409 6.9187 3.48338C8.15118 2.18267 9.83555 1.40413 11.6249 1.30813C13.4142 1.21212 15.1722 1.80597 16.5368 2.96734C17.9014 4.12871 18.7686 5.76916 18.9599 7.55081C19.0039 7.96281 18.6639 8.29981 18.2499 8.29981C17.8359 8.29981 17.5049 7.96181 17.4499 7.55181C17.3169 6.58408 16.9286 5.66922 16.3249 4.90126C15.7212 4.1333 14.924 3.53993 14.015 3.18214C13.1061 2.82435 12.1183 2.71505 11.1531 2.86547C10.1879 3.01588 9.28018 3.42059 8.52321 4.038C7.76624 4.65541 7.18733 5.46325 6.84597 6.37849C6.50461 7.29373 6.41311 8.28336 6.58089 9.24567C6.74866 10.208 7.16965 11.1083 7.80059 11.854C8.43153 12.5997 9.24967 13.164 10.1709 13.4888C10.3565 13.0693 10.6806 12.7264 11.089 12.5175C11.4973 12.3086 11.9651 12.2464 12.4138 12.3413C12.8626 12.4362 13.2651 12.6825 13.5538 13.0389C13.8426 13.3953 14.0001 13.8401 13.9999 14.2988C14.0004 14.7611 13.8407 15.2092 13.548 15.5671C13.2554 15.9249 12.8478 16.1703 12.3946 16.2615C11.9414 16.3527 11.4706 16.2841 11.0623 16.0674C10.654 15.8507 10.3333 15.4993 10.1549 15.0728ZM9.12991 16.3028C7.95093 15.8792 6.88009 15.2003 5.99391 14.3148C5.44605 14.3785 4.94068 14.6413 4.57381 15.0531C4.20694 15.465 4.00413 15.9973 4.00391 16.5488V17.4688C4.00391 18.0408 4.18191 18.5988 4.51391 19.0648C6.05591 21.2288 8.57991 22.2998 11.9999 22.2998C15.4199 22.2998 17.9449 21.2278 19.4899 19.0648C19.8234 18.5983 20.0028 18.0393 20.0029 17.4658V16.5478C20.003 16.2525 19.945 15.96 19.8321 15.6871C19.7192 15.4142 19.5536 15.1662 19.3449 14.9572C19.1362 14.7483 18.8883 14.5825 18.6155 14.4694C18.3427 14.3562 18.0502 14.2979 17.7549 14.2978H15.4999C15.5001 15.0427 15.2626 15.7681 14.822 16.3687C14.3815 16.9693 13.7608 17.4137 13.0503 17.6372C12.3397 17.8608 11.5764 17.8518 10.8714 17.6116C10.1663 17.3714 9.55623 16.9136 9.12991 16.3028ZM15.9999 8.29981C16.0005 7.71514 15.8727 7.13747 15.6254 6.60766C15.3781 6.07786 15.0175 5.60885 14.5689 5.23381C14.153 4.88588 13.6706 4.62616 13.1512 4.47042C12.6318 4.31468 12.0861 4.26618 11.5474 4.32786C11.0086 4.38955 10.4881 4.56013 10.0173 4.82925C9.54652 5.09837 9.13538 5.46039 8.80886 5.89333C8.48234 6.32627 8.24725 6.82109 8.1179 7.3477C7.98854 7.87431 7.96761 8.42172 8.05637 8.95668C8.14514 9.49163 8.34175 10.0029 8.63426 10.4596C8.92676 10.9162 9.30906 11.3085 9.75791 11.6128C10.3864 11.0866 11.1802 10.7987 11.9999 10.7998C12.8529 10.7998 13.6349 11.1048 14.2429 11.6128C14.7845 11.2465 15.2278 10.7528 15.5342 10.1752C15.8405 9.5976 16.0004 8.95364 15.9999 8.29981Z" fill="#131313"/>
</svg>
