<svg width="24" height="25" viewBox="0 0 24 25" fill="none" xmlns="http://www.w3.org/2000/svg">
<path fill-rule="evenodd" clip-rule="evenodd" d="M14 22.2998H10C6.229 22.2998 4.343 22.2998 3.172 21.1278C2 19.9568 2 18.0708 2 14.2998V10.2998C2 6.5288 2 4.6428 3.172 3.4718C4.343 2.2998 6.239 2.2998 10.03 2.2998C10.636 2.2998 11.121 2.2998 11.53 2.3168C11.517 2.3968 11.51 2.4778 11.51 2.5608L11.5 5.3948C11.5 6.4918 11.5 7.4618 11.605 8.2428C11.719 9.0898 11.98 9.93681 12.672 10.6288C13.362 11.3188 14.21 11.5808 15.057 11.6948C15.838 11.7998 16.808 11.7998 17.905 11.7998H21.957C22 12.3338 22 12.9898 22 13.8628V14.2998C22 18.0708 22 19.9568 20.828 21.1278C19.657 22.2998 17.771 22.2998 14 22.2998ZM5.25 14.7998C5.25 14.6009 5.32902 14.4101 5.46967 14.2695C5.61032 14.1288 5.80109 14.0498 6 14.0498H14C14.1989 14.0498 14.3897 14.1288 14.5303 14.2695C14.671 14.4101 14.75 14.6009 14.75 14.7998C14.75 14.9987 14.671 15.1895 14.5303 15.3301C14.3897 15.4708 14.1989 15.5498 14 15.5498H6C5.80109 15.5498 5.61032 15.4708 5.46967 15.3301C5.32902 15.1895 5.25 14.9987 5.25 14.7998ZM5.25 18.2998C5.25 18.1009 5.32902 17.9101 5.46967 17.7695C5.61032 17.6288 5.80109 17.5498 6 17.5498H11.5C11.6989 17.5498 11.8897 17.6288 12.0303 17.7695C12.171 17.9101 12.25 18.1009 12.25 18.2998C12.25 18.4987 12.171 18.6895 12.0303 18.8301C11.8897 18.9708 11.6989 19.0498 11.5 19.0498H6C5.80109 19.0498 5.61032 18.9708 5.46967 18.8301C5.32902 18.6895 5.25 18.4987 5.25 18.2998Z" fill="#131313"/>
<path d="M19.352 7.9168L15.392 4.3538C14.265 3.3388 13.702 2.8308 13.009 2.5658L13 5.2998C13 7.6568 13 8.8358 13.732 9.5678C14.464 10.2998 15.643 10.2998 18 10.2998H21.58C21.218 9.5958 20.568 9.0118 19.352 7.9168Z" fill="#131313"/>
</svg>
