<svg width="24" height="24" viewBox="0 0 24 24" fill="none" xmlns="http://www.w3.org/2000/svg">
<path fill-rule="evenodd" clip-rule="evenodd" d="M3.378 5.082C3 5.62 3 7.22 3 10.417V11.991C3 17.629 7.239 20.366 9.899 21.527C10.62 21.842 10.981 22 12 22C13.02 22 13.38 21.842 14.101 21.527C16.761 20.365 21 17.63 21 11.991V10.417C21 7.219 21 5.62 20.622 5.082C20.245 4.545 18.742 4.03 15.735 3.001L15.162 2.805C13.595 2.268 12.812 2 12 2C11.189 2 10.405 2.268 8.838 2.805L8.265 3C5.258 4.03 3.755 4.545 3.378 5.082ZM13.5 15C13.5 15.2652 13.3946 15.5196 13.2071 15.7071C13.0196 15.8946 12.7652 16 12.5 16H11.5C11.2348 16 10.9804 15.8946 10.7929 15.7071C10.6054 15.5196 10.5 15.2652 10.5 15V13.599C9.92684 13.2695 9.47861 12.7599 9.22503 12.1493C8.97145 11.5388 8.92672 10.8615 9.09781 10.2229C9.26889 9.58432 9.6462 9.02015 10.171 8.61814C10.6959 8.21613 11.3389 7.99882 12 8C12.6607 7.99965 13.303 8.21741 13.8273 8.61949C14.3516 9.02157 14.7284 9.58547 14.8994 10.2237C15.0704 10.8619 15.0259 11.5386 14.7729 12.149C14.5198 12.7593 14.0724 13.269 13.5 13.599V15Z" fill="#131313"/>
</svg>
